<svg width="42" height="42" viewBox="0 0 42 42" fill="none" xmlns="http://www.w3.org/2000/svg">
<path d="M21 0C9.42014 0 0 9.42014 0 21C0 32.5799 9.42014 42 21 42C32.5799 42 42 32.5799 42 21C42 9.42014 32.5799 0 21 0ZM30.9873 31.8621C30.646 32.2034 30.1981 32.3751 29.7501 32.3751C29.3021 32.3751 28.8539 32.2034 28.5129 31.8621L19.7628 23.1123C19.4337 22.7851 19.2501 22.3404 19.2501 21.8751V10.5C19.2501 9.53229 20.0339 8.75011 21 8.75011C21.9661 8.75011 22.7499 9.53229 22.7499 10.5V21.1506L30.9873 29.3877C31.6714 30.0721 31.6714 31.178 30.9873 31.8621Z" fill="#FFFBF5"/>
</svg>
