<svg width="42" height="42" viewBox="0 0 42 42" fill="none" xmlns="http://www.w3.org/2000/svg">
<g clip-path="url(#clip0)">
<path d="M27.8408 21.2152L42 30.1665V11.886L27.8408 21.2152Z" fill="#FFFBF5"/>
<path d="M0 11.886V30.1665L14.1593 21.2152L0 11.886Z" fill="#FFFBF5"/>
<path d="M39.375 6.5625H2.62499C1.31511 6.5625 0.27561 7.539 0.0787354 8.79638L21 22.5802L41.9212 8.79638C41.7244 7.539 40.6849 6.5625 39.375 6.5625Z" fill="#FFFBF5"/>
<path d="M25.4362 22.8007L21.7219 25.2472C21.5014 25.3916 21.252 25.4625 21 25.4625C20.748 25.4625 20.4986 25.3916 20.2781 25.2472L16.5637 22.7981L0.0839844 33.222C0.286109 34.4688 1.32036 35.4375 2.62498 35.4375H39.375C40.6796 35.4375 41.7139 34.4688 41.916 33.222L25.4362 22.8007Z" fill="#FFFBF5"/>
</g>
<defs>
<clipPath id="clip0">
<rect width="42" height="42" fill="white"/>
</clipPath>
</defs>
</svg>
