<svg width="42" height="42" viewBox="0 0 42 42" fill="none" xmlns="http://www.w3.org/2000/svg">
<path d="M41.8988 34.4524L39.0779 25.8434C38.8563 25.1665 38.2176 24.7161 37.5037 24.7274C33.4341 24.8053 39.3606 24.7533 29.6127 24.8267C28.8164 24.8327 28.1362 24.3209 27.8905 23.6092L26.1383 18.5096L29.0584 22.8222C29.3101 23.1939 29.7302 23.4163 30.1794 23.4163C30.1828 23.4163 30.1863 23.4163 30.1897 23.4162L35.5947 23.3756C36.3418 23.37 36.9429 22.7612 36.9373 22.0158C36.9317 21.2739 36.3271 20.6764 35.5847 20.6764C35.5813 20.6764 35.5778 20.6764 35.5743 20.6765L30.8946 20.7116L28.3805 16.9988L31.0541 19.3044L31.4835 19.3012L30.0565 15.3333C29.6803 14.2873 28.5253 13.7434 27.4766 14.1188L25.5291 14.8158C25.0586 15.4464 24.4632 16.5267 24.1927 18.1755C24.1045 18.7132 24.0464 19.3402 24 20.0176L27.1862 27.0793C27.5116 27.8006 28.2749 27.9945 29.0646 27.9945C30.7102 27.9945 33.0805 27.989 36.3648 27.989L38.8125 35.4589C39.0915 36.3104 40.0091 36.7727 40.86 36.495C41.7124 36.2169 42.1775 35.3025 41.8988 34.4524Z" fill="#C7770F"/>
<path d="M39.2411 37.1682H34.4026V31.574L35.3317 31.5691C36.1081 31.5651 36.7341 30.934 36.7301 30.1597C36.726 29.3876 36.0974 28.7647 35.3245 28.7647C35.3221 28.7647 35.3195 28.7647 35.3171 28.7647L27.0665 28.8075L23.9791 22C23.8813 23.7555 23.7426 25.6693 23.295 27.2954L24.8811 30.7924C25.1087 31.2944 25.6098 31.6167 26.1617 31.6167C26.1641 31.6167 26.1667 31.6167 26.169 31.6167L28.2442 31.606V37.1682H23.4057C22.6293 37.1682 22 37.7959 22 38.5704C22 39.3449 22.6293 39.9727 23.4057 39.9727H39.2411C40.0175 39.9727 40.6468 39.3449 40.6468 38.5704C40.6469 37.7959 40.0175 37.1682 39.2411 37.1682Z" fill="#C7770F"/>
<path d="M25.3022 13.6714V13.6713C25.6723 13.4971 25.9925 13.2545 26.2522 12.964C26.9572 12.1756 27.2187 11.0371 26.8359 9.97282C26.4803 8.98381 25.6541 8.2989 24.6992 8.07731C24.3173 7.98867 23.915 7.9743 23.5138 8.04434C23.5107 8.04444 20.611 8.16521 18.5763 11.9294C18.9189 12.3471 19.1492 12.8644 19.2136 13.4407C19.3744 14.8802 18.4488 16.1907 17.0895 16.5578C16.4919 21.2135 19.0702 23.9668 19.381 29.8267C19.4097 30.3666 20.0525 30.6426 20.4573 30.2831C22.8976 28.1153 22.2895 21.89 22.8501 18.4724C23.4184 15.007 25.3022 13.6714 25.3022 13.6714Z" fill="#C7770F"/>
<path d="M9.21811 7.42063C10.9954 7.42063 12.4362 5.98333 12.4362 4.21032C12.4362 2.43731 10.9954 1 9.21811 1C7.4408 1 6 2.43731 6 4.21032C6 5.98333 7.4408 7.42063 9.21811 7.42063Z" fill="#C7770F"/>
<path d="M9.84579 16.0697L16.7584 15.301C17.6168 15.2055 18.2351 14.4339 18.1394 13.5776C18.097 13.198 17.9211 12.8659 17.6641 12.6216L18.3504 11.4505C18.7242 10.8126 20.8094 7.25411 21.1082 6.74427C21.4919 6.08938 21.2708 5.24816 20.6143 4.86532L17.3254 10.4781L17.9463 4.00634C17.1893 3.93409 16.5171 4.48761 16.4446 5.24267L15.9006 10.9112L15.7701 12.2713L10.1017 12.9016L6.74746 10.4694L9.79191 11.5905L11.1117 11.4437C11.0307 10.3071 10.1291 9.3681 8.95544 9.27186L4.7697 8.92858C3.47336 8.82227 2.3361 9.78445 2.22954 11.0776L1.48577 23.1115L2.47223 29.5275L0.0672732 38.2779C-0.206808 39.2751 0.381374 40.3051 1.38095 40.5785C2.38044 40.8517 3.41306 40.265 3.68714 39.2679L6.19774 30.1329C6.26741 29.8792 6.28283 29.6139 6.2429 29.354L5.33153 23.4266L6.06162 23.4865L8.30034 29.5757L6.43024 38.3851C6.18352 39.5476 7.07194 40.6456 8.26813 40.6456C9.1359 40.6456 9.91527 40.0416 10.1022 39.1609L12.0842 29.8246C12.1573 29.4802 12.1317 29.1223 12.0102 28.792L10.1312 23.6813L10.648 17.4089L12.0725 18.9082C12.2248 19.0686 12.4284 19.1836 12.6634 19.2243C13.026 19.2872 13.5386 19.376 16.2907 19.8533C16.1381 18.8729 16.0844 17.842 16.2014 16.7085C15.5122 16.7852 10.3579 17.3584 9.40585 17.4642C8.83428 17.5278 8.29759 17.2816 7.96486 16.8629L4.9083 12.9933L8.75305 15.7812C9.06962 16.0107 9.45991 16.1126 9.84579 16.0697Z" fill="#C7770F"/>
</svg>
