<svg width="53" height="53" viewBox="0 0 53 53" fill="none" xmlns="http://www.w3.org/2000/svg">
<g clip-path="url(#clip0)">
<path d="M52.9482 15.5821C52.824 12.7661 52.3686 10.83 51.7163 9.15241C51.0433 7.37167 50.0079 5.77738 48.6514 4.45204C47.3261 3.10608 45.7213 2.0602 43.9612 1.39773C42.2739 0.745377 40.3479 0.289981 37.5318 0.165819C34.6947 0.0311416 33.794 0 26.5983 0C19.4026 0 18.5019 0.0311416 15.6753 0.155304C12.8592 0.279466 10.9231 0.735266 9.24592 1.38722C7.46478 2.0602 5.87049 3.09556 4.54515 4.45204C3.19919 5.77738 2.15372 7.38219 1.49084 9.1423C0.838487 10.83 0.38309 12.7555 0.258928 15.5716C0.124251 18.4088 0.0931091 19.3094 0.0931091 26.5052C0.0931091 33.7009 0.124251 34.6016 0.248413 37.4282C0.372575 40.2443 0.828376 42.1803 1.48073 43.8579C2.15372 45.6387 3.19919 47.233 4.54515 48.5583C5.87049 49.9043 7.4753 50.9502 9.23541 51.6126C10.9231 52.265 12.8486 52.7204 15.6651 52.8445C18.4914 52.9691 19.3924 52.9998 26.5882 52.9998C33.7839 52.9998 34.6846 52.9691 37.5112 52.8445C40.3273 52.7204 42.2634 52.265 43.9406 51.6126C47.5024 50.2355 50.3185 47.4194 51.6956 43.8579C52.3476 42.1702 52.8034 40.2443 52.9276 37.4282C53.0517 34.6016 53.0829 33.7009 53.0829 26.5052C53.0829 19.3094 53.0723 18.4088 52.9482 15.5821ZM48.1754 37.2211C48.0614 39.8095 47.6266 41.2073 47.2642 42.1391C46.3736 44.448 44.5411 46.2805 42.2322 47.1711C41.3004 47.5335 39.8925 47.9682 37.3143 48.0819C34.5188 48.2065 33.6804 48.2372 26.6088 48.2372C19.5372 48.2372 18.6883 48.2065 15.903 48.0819C13.3146 47.9682 11.9168 47.5335 10.985 47.1711C9.836 46.7464 8.79012 46.0735 7.94121 45.1934C7.06115 44.334 6.38817 43.2986 5.96351 42.1496C5.60114 41.2178 5.16637 39.8095 5.05272 37.2317C4.92815 34.4362 4.89742 33.5974 4.89742 26.5258C4.89742 19.4542 4.92815 18.6053 5.05272 15.8204C5.16637 13.232 5.60114 11.8342 5.96351 10.9024C6.38817 9.753 7.06115 8.70753 7.95173 7.85821C8.81075 6.97815 9.84611 6.30517 10.9955 5.88092C11.9273 5.51854 13.3356 5.08377 15.9135 4.96972C18.7089 4.84556 19.5477 4.81442 26.6189 4.81442C33.701 4.81442 34.5394 4.84556 37.3248 4.96972C39.9132 5.08377 41.3109 5.51854 42.2427 5.88092C43.3917 6.30517 44.4376 6.97815 45.2865 7.85821C46.1666 8.71764 46.8396 9.753 47.2642 10.9024C47.6266 11.8342 48.0614 13.2421 48.1754 15.8204C48.2996 18.6158 48.3307 19.4542 48.3307 26.5258C48.3307 33.5974 48.2996 34.4257 48.1754 37.2211Z" fill="#20323C"/>
<path d="M26.5983 12.8904C19.0818 12.8904 12.9833 18.9885 12.9833 26.5053C12.9833 34.0222 19.0818 40.1203 26.5983 40.1203C34.1151 40.1203 40.2132 34.0222 40.2132 26.5053C40.2132 18.9885 34.1151 12.8904 26.5983 12.8904ZM26.5983 35.337C21.722 35.337 17.7666 31.382 17.7666 26.5053C17.7666 21.6286 21.722 17.6737 26.5983 17.6737C31.475 17.6737 35.43 21.6286 35.43 26.5053C35.43 31.382 31.475 35.337 26.5983 35.337Z" fill="#20323C"/>
<path d="M43.9305 12.3518C43.9305 14.1071 42.5072 15.5303 40.7516 15.5303C38.9963 15.5303 37.5731 14.1071 37.5731 12.3518C37.5731 10.5962 38.9963 9.17334 40.7516 9.17334C42.5072 9.17334 43.9305 10.5962 43.9305 12.3518Z" fill="#20323C"/>
</g>
<defs>
<clipPath id="clip0">
<rect width="53" height="53" fill="white"/>
</clipPath>
</defs>
</svg>
