<svg width="28" height="42" viewBox="0 0 28 42" fill="none" xmlns="http://www.w3.org/2000/svg">
<path d="M14 0C6.28053 0 -3.05176e-05 6.28056 -3.05176e-05 14C-3.05176e-05 16.3174 0.579356 18.6151 1.68079 20.6531L13.2344 41.5488C13.3882 41.8274 13.6813 42 14 42C14.3187 42 14.6118 41.8274 14.7656 41.5488L26.3235 20.6462C27.4206 18.6151 28 16.3173 28 13.9999C28 6.28056 21.7195 0 14 0ZM14 21C10.1403 21 7.00002 17.8598 7.00002 14C7.00002 10.1403 10.1403 7.00005 14 7.00005C17.8597 7.00005 21 10.1403 21 14C21 17.8598 17.8597 21 14 21Z" fill="#FFFBF5"/>
</svg>
