<?xml version="1.0" encoding="utf-8"?>
<!-- Generator: Adobe Illustrator 25.0.1, SVG Export Plug-In . SVG Version: 6.00 Build 0)  -->
<svg version="1.1" id="Layer_1" xmlns="http://www.w3.org/2000/svg" xmlns:xlink="http://www.w3.org/1999/xlink" x="0px" y="0px"
	 viewBox="0 0 1080 1080" style="enable-background:new 0 0 1080 1080;" xml:space="preserve">
<style type="text/css">
	.st0{fill:#FFFFFF;}
</style>
<g>
	<path class="st0" d="M292.06,87.35c10.46,2.58,19.14,8.43,27.75,14.58c2.71,1.93,6.31,2.66,9.55,3.79
		c2.76,0.96,5.86,1.24,8.35,2.64c7.79,4.41,16.19,6.7,24.86,8.52c13.96,2.93,25.61,9.64,35.56,20.21
		c13.47,14.3,27.92,27.86,45.31,37.29c15.8,8.57,26.83,20.92,33.87,37.08c7.4,17.01,14.47,34.16,21.63,51.27
		c2.17,5.17,4.19,10.4,6.22,15.63c0.68,1.74,1.38,3.51,1.72,5.33c0.6,3.23-1.39,6.14-4.55,7.06c-3.12,0.91-4.68-0.96-6.05-3.3
		c-1.18-2.02-2.5-3.96-3.76-5.93c-0.31,0.14-0.61,0.29-0.92,0.43c0.53,1.7,1.06,3.39,1.6,5.09c4.43,14.01,8.97,27.98,13.18,42.05
		c0.59,1.97,0.39,4.96-0.76,6.51c-2.48,3.35-5.77,2.69-7.33-1.2c-4.56-11.31-13.97-18.33-22.67-26c-0.26-0.23-0.74-0.2-1.46-0.38
		c0.14,0.78,0.16,1.42,0.37,1.98c9.76,25.72,15.35,52.52,20.47,79.43c0.22,1.18-0.6,3.53-1.33,3.7c-1.52,0.37-3.75,0.17-4.88-0.76
		c-1.8-1.49-2.94-3.76-4.34-5.71c-6.45-9.02-12.84-18.08-19.39-27.03c-1.77-2.43-4.02-4.51-6.05-6.75c-0.33,0.15-0.66,0.3-1,0.46
		c0.96,5.92,2.07,11.82,2.86,17.76c3.53,26.49,7.85,52.91,7.47,79.76c-0.01,0.94,0.04,1.88-0.04,2.81c-0.26,3.25-1.6,5.85-5.1,6.19
		c-3.33,0.33-5.04-1.85-5.89-4.87c-3.17-11.31-6.03-22.72-9.64-33.89c-4.35-13.46-9.29-26.74-14.13-40.04
		c-0.48-1.31-2.07-3.16-3.07-3.11c-1.59,0.08-3.71,1.16-4.56,2.49c-6.31,9.9-12.44,19.93-18.44,30.02
		c-1.19,2.01-1.96,4.44-2.29,6.76c-1.77,12.7-3.49,25.4-4.88,38.14c-0.39,3.61-0.17,7.47,0.7,10.99
		c3.83,15.54,12.39,28.91,20.45,42.42c5.33,8.93,11.38,17.46,17.56,25.84c2.98,4.04,7.08,7.24,10.51,10.97
		c1.16,1.27,1.81,3.01,2.69,4.53c-1.7,0.87-3.36,2.35-5.11,2.48c-4.77,0.35-9.58,0.12-14.58,0.12c0.19,0.37,0.36,0.96,0.73,1.38
		c10.3,11.94,20.64,23.85,30.89,35.83c0.75,0.88,1.59,2.82,1.2,3.3c-0.99,1.21-2.62,2.56-4.06,2.63c-3.53,0.17-7.1-0.34-11.52-0.64
		c4.3,5.68,7.96,10.89,12.01,15.78c5.34,6.46,10.93,12.71,16.5,18.96c2.42,2.71,1.9,5.86-1.58,6.83c-1.98,0.56-4.24,0.75-6.26,0.42
		c-8.56-1.42-17.07-3.12-25.61-4.66c-1.69-0.3-3.42-0.34-5.91-0.58c2.27,3.45,4.04,6.39,6.06,9.16c5.41,7.43,7.19,15.65,5.86,24.67
		c-1.82,12.29-2.78,24.77-5.57,36.84c-3.33,14.41-8.09,28.49-12.54,42.61c-0.46,1.46-2.99,2.92-4.74,3.17
		c-2.92,0.43-5.14-1.47-6-4.29c-0.81-2.66-1.17-5.46-2.46-8.37c-1.31,6.09-2.7,12.17-3.92,18.27c-2.47,12.42-4.82,24.87-7.3,37.29
		c-0.78,3.92-1.39,7.97-2.86,11.64c-1.4,3.52-3.53,6.84-5.86,9.86c-2.07,2.68-3.83,2.1-4.46-1.28c-0.83-4.46-1.21-9.01-2.06-13.47
		c-0.76-4.02-1.89-7.96-3.79-11.89c-0.79,3.54-1.66,7.07-2.34,10.63c-3.74,19.68-11.29,38.12-18.56,56.64
		c-1.17,2.98-2.19,6.91-7.31,5.21c-3.28-1.09-4.17-2.74-3.3-5.96c1.88-6.96,3.78-13.93,5.25-20.98c0.79-3.81,0.7-7.8,1.03-12.05
		c-3.62,12.89-6.52,25.46-10.69,37.6c-6.55,19.03-16.65,36.4-27.09,53.51c-4.31,7.06-9.44,13.61-13.95,20.55
		c-2.51,3.86-5.84,5.62-10.57,5.54c-2.55-4.81-1.32-9.6,0.09-14.55c2.33-8.21,4.33-16.51,6.41-24.79c0.27-1.07,0.23-2.23-0.5-3.53
		c-1.41,3.79-2.92,7.53-4.2,11.36c-7.39,22.16-20.43,41.1-34.54,59.28c-6.52,8.39-14.41,15.73-21.84,23.39
		c-1.52,1.57-3.76,2.44-5.67,3.63c-1.87,0-3.74,0-5.62,0c-0.59-2.15-1.9-4.39-1.63-6.43c0.7-5.41,2.58-10.69,3.09-16.11
		c2.48-26.19-1.81-51.66-8.79-76.79c-0.37-1.34-1.47-2.48-2.81-4.64c-1.24,10.16-2.16,19.07-3.46,27.92
		c-1.08,7.38-2.59,14.71-3.96,22.05c-0.51,2.73-2.44,3.35-5.01,3.57c-2.94,0.25-3.19-1.68-3.73-3.59
		c-4.85-17.14-11.11-33.75-19.46-49.49c-9.69-18.25-19.68-36.34-29.76-54.92c-3.02,5.92-3.13,10.68-0.79,17.34
		c1.59,4.52,0.77,9.85-1.62,10.56c-2.75,0.81-5.82-1.83-7.92-6.48c-8.61-19.11-13.35-39.41-18.46-59.59
		c-0.33-1.31-0.78-2.58-1.18-3.87c-0.4-0.01-0.8-0.02-1.2-0.03c-0.5,1.95-1.14,3.87-1.44,5.85c-0.24,1.57,0.07,3.2-0.07,4.79
		c-0.31,3.5-2.95,4.07-5.75,4.32c-2.73,0.24-4.27-1.05-4.78-3.72c-4.45-23.33-11.01-46.3-11.49-70.3
		c-0.12-6.15-0.84-12.3-1.28-18.45c-2.14,4.65-3.38,9.39-4.99,14.01c-0.44,1.26-2.17,3.13-2.98,2.98c-1.87-0.34-3.7-1.58-5.24-2.82
		c-0.65-0.53-0.65-1.97-0.79-3.02c-1.96-15.62-3.89-31.25-5.82-46.88c-1.26-10.16,0.95-19.56,5.71-28.59
		c4.38-8.32,8.27-16.89,12.81-26.24c-1.89,0.82-2.79,1.3-3.75,1.61c-9.25,2.97-18.49,5.97-27.78,8.82
		c-4.63,1.42-9.16,1.52-13.02-2.14c0-0.27,0-0.53,0-0.8c9.55-10.13,19.1-20.27,29.35-31.15c-3.51,0.37-5.76,0.87-7.98,0.78
		c-4.05-0.17-8.29-0.06-12.08-1.24c-4.55-1.42-4.67-3.53-1.26-6.91c6.55-6.48,13.13-12.94,19.67-19.43c0.69-0.69,1.22-1.54,2.4-3.04
		c-2.12,0-3.37-0.01-4.63,0c-2.66,0.02-5.48,0.63-7.92-0.09c-2.18-0.65-3.92-2.77-5.86-4.23c1.36-1.5,2.5-3.33,4.12-4.46
		c9.51-6.64,17.27-14.95,23.85-23.7c-2.9-2.96-5.53-5.64-7.6-7.76c6.08-7.16,11.92-13.39,17.01-20.18
		C119.01,494,130.66,479,139.17,461.9c2.83-5.68,4.41-11.32,2.43-17.69c-0.82-2.64-0.8-5.54-1.17-8.32
		c-1.61-11.97-3.7-23.66-11.54-33.62c-5.27-6.7-9.33-14.36-14.68-20.99c-3.17-3.93-6.25-7.22-3.66-12.71
		c-2.53,0.57-4.58,1.29-6.66,1.43c-4.03,0.27-5.56-1.85-4.2-5.54c1.07-2.9,2.25-5.77,3.38-8.65c-0.36-0.18-0.72-0.36-1.09-0.53
		c-0.77,1.15-1.55,2.3-2.32,3.46c-2.14,3.23-4.11,6.59-6.51,9.61c-0.89,1.12-3.55,2.39-4.05,1.97c-1.46-1.22-2.62-3.15-3.14-5.01
		c-0.34-1.21,0.55-2.82,1.05-4.19c3.05-8.41,6.14-16.8,9.2-25.21c0.36-1,0.59-2.05,1.13-3.97c-4.22,5.99-7.86,11.15-11.46,16.26
		c-4.37-2.57-5.53-5.51-5.22-10.02c1.03-15.07,7.45-28.32,13.35-41.74c0.74-1.68,3.33-3.16,5.3-3.56c8.76-1.79,17.45-5.47,26.5-1.39
		c0.16-0.8,0.33-1.12,0.24-1.3c-0.55-1.06-1.12-2.11-1.76-3.12c-14.35-22.57-21.05-47.16-19.38-73.91
		c0.73-11.58,1.51-23.17,2.76-34.7c0.4-3.73,1.69-7.74,3.76-10.83c3.32-4.94,7.19-9.7,11.58-13.7c28.25-25.67,61-44.31,95.45-60.18
		c7.93-3.66,15.97-3.14,24.25-0.74c3.53,1.03,7.55,0.89,11.29,0.55c3.82-0.35,7.55-1.63,11.33-2.44c5.97-1.28,11.94-2.52,17.92-3.77
		C286.18,87.35,289.12,87.35,292.06,87.35z M369.55,580.87c0.28,0.35,0.53,0.52,0.59,0.75c0.19,0.78,0.31,1.57,0.46,2.36
		c4.04,20.44,10.28,40.01,22.03,57.52c4.83,7.2,10.37,14.22,13.64,22.12c6.97,16.87,12.68,34.27,18.9,51.44
		c0.35,0.95,0.71,1.9,1.06,2.85c0.39,0.03,0.78,0.05,1.17,0.08c0.32-1.33,0.98-2.67,0.91-3.97c-0.79-13.99-1.64-27.97-2.59-41.95
		c-0.59-8.67-4.53-15.75-10.58-21.88c-3.12-3.15-5.84-6.7-8.74-10.07c0.3-0.3,0.61-0.6,0.91-0.9c2.02,1.8,4.09,3.55,6.05,5.41
		c1.64,1.56,3.05,3.38,4.75,4.87c4.72,4.13,7.56,9.22,8.63,15.4c2.93,16.89,5.17,33.83,4.21,51.04c-0.05,0.9,0.17,1.81,0.27,2.71
		c1.28-2.64,2.18-5.17,2.59-7.78c2.39-14.89,5.07-29.75,6.84-44.71c1.21-10.2-1.67-19.52-7.5-28.4c-9.36-14.25-18.65-28.71-26.11-44
		c-6.69-13.72-10.94-28.64-16.13-43.08c-1.49-4.13,0.6-6.2,5.19-5.33c-1.43,8.3,1.95,15.62,4.57,23.2
		c4.45,12.88,12.3,23.93,18.69,35.74c1.81,3.34,4.83,6.03,7.3,9.02c0.33-0.21,0.65-0.42,0.98-0.63c-0.68-2.86-5.72-4.39-2.9-8.53
		c9.57,10.55,20.36,18.9,35.74,21.33c-1.33-2.11-2.07-3.51-3.02-4.76c-7.79-10.35-15.97-20.43-23.34-31.07
		c-6.98-10.07-13.14-20.7-19.62-31.11c-0.39-0.63-0.33-1.54-0.48-2.32c1.13,0.3,1.66,0.84,2.11,1.44
		c6.02,8.02,12.39,15.8,17.89,24.15c3.51,5.33,7.89,5.16,13.48,4.52c-0.76-0.91-1.17-1.39-1.57-1.88
		c-9.69-11.93-19.47-23.79-28.96-35.87c-1.38-1.75-1.41-4.57-2.06-6.89c2.4-0.14,4.87-0.71,7.19-0.33c2.79,0.46,5.45,1.71,7.79,2.5
		c-11.05-18.33-22.11-36.67-32.83-54.45c0.57,16.15,7.95,31.85,10.64,48.75c-7.32-3.11-9.56-9.3-11.21-15.7
		c-3-11.64-6.47-23.23-8.34-35.07c-1.35-8.57-1.13-17.57-0.31-26.25c0.87-9.27,3.09-18.43,5.01-27.57c2-9.47-1-16.72-8.67-22.41
		c-4.93-3.66-9.91-7.33-14.36-11.54c-7.28-6.88-12.35-14.97-14.98-25.02c-3.41-13-3-25.93-2.18-39.01c0.22-3.51,0.38-7.03,0.6-11.14
		c-2.78,0.9-4.84,1.42-6.79,2.22c-18.27,7.48-36.53,14.96-54.76,22.53c-8.65,3.59-15.26,9.17-17.91,18.65
		c-0.63,2.26-1.84,4.49-3.28,6.35c-2.38,3.08-5.37,2.72-7.16-0.69c-1.43-2.71-2.72-5.5-3.88-8.34c-3.04-7.47-7.84-13.44-15.17-16.91
		c-30.02-14.19-60.11-28.25-90.19-42.31c-0.87-0.41-1.93-0.4-2.91-0.59c1.96,2.63,4.26,4.33,6.36,6.25
		c6,5.51,12.15,10.89,17.76,16.78c2.47,2.59,4.91,6.13,5.39,9.51c1.58,11.12,2.57,22.47-3.13,32.92
		c-5.77,10.56-12.04,20.8-20.55,29.5c-8.53,8.71-12.04,18.51-8.7,31.03c3.42,12.78,5.28,26.08,2.45,39.3
		c-3.86,18.01-8.3,35.89-12.57,53.81c-0.77,3.23-1.11,6.24,0.8,9.25c0.53,0.84,0.53,2.29,0.25,3.33c-2.5,9.28-5,18.58-7.78,27.78
		c-0.78,2.56-2.51,4.83-3.81,7.24c-0.43-0.2-0.85-0.4-1.28-0.6c2.99-10.33,5.97-20.65,8.99-31.07c-0.64-0.31-1.08-0.6-1.57-0.76
		c-5.88-2.02-5.95-2.04-4.4-8.27c3.45-13.87,6.99-27.72,10.45-41.58c0.75-3.01,1.31-6.07,1.95-9.1c-0.28-0.12-0.56-0.24-0.83-0.36
		c-9.42,13.74-18.85,27.47-28.27,41.21c0.24,0.29,0.48,0.57,0.73,0.86c2.26-1.24,4.69-2.27,6.75-3.79c2.42-1.78,4.02-1.38,5.61,1.16
		c-7.62,11.01-15.2,21.97-23.15,33.47c3.66-1.08,6.76-1.99,9.93-2.92c0.58,7.15,0.61,7.18-3.14,12.35c-1.88,2.59-3.9,5.09-5.87,7.62
		c-4.54,5.81-9.1,11.61-14.22,18.14c1.94-0.52,2.93-0.89,3.95-1.04c9.71-1.39,16.34-6.45,20.55-15.5
		c3.58-7.69,8.25-14.88,12.44-22.29c-5.08,26.17-23,45.47-35.72,67.71c4.61-3.82,9.22-7.65,13.82-11.47
		c0.14,0.15,0.28,0.3,0.42,0.45c-2.71,2.89-5.42,5.79-8.76,9.36c9.83-3.33,17.7-7.73,23.26-15.61c2.7-3.82,5.66-7.45,8.35-11.28
		c5.59-7.96,9.75-16.57,11.42-26.24c1.36-7.89,2.67-15.79,4.13-23.67c0.14-0.78,1.17-1.4,1.79-2.09c0.32,0.88,0.98,1.8,0.9,2.65
		c-1.66,17.26-4.65,34.15-13.45,49.49c-7.91,13.79-15.45,27.79-23.58,41.44c-11.69,19.62-18.75,40.16-14.33,63.36
		c0.25,1.33,0.32,2.7,0.48,4.05c5.06-13.07,10.78-25.25,21.89-34.08c-6.93,11.16-13.59,22.41-16.66,34.35
		c2.93-2.79,6.35-5.92,9.64-9.2c2.27-2.26,4.54-4.56,6.45-7.11c2.88-3.84,5.33-8.01,8.16-11.89c10.81-14.8,21.07-29.94,29.11-46.46
		c4.18-8.59,7.51-17.39,7.91-27.11c0.18-4.26,0.87-8.51,1.43-12.75c0.32-2.38,1.15-4.4,4.39-4.1c-0.45,5.82,0,11.76-1.51,17.14
		c-4.83,17.23-10.38,34.25-15.67,51.34c-0.12,0.4-0.42,0.75-0.98,1.72c-0.57-2.04-0.94-3.34-1.47-5.2
		c-5.24,7.81-10.07,15.14-15.04,22.37c-3.25,4.73-7.04,9.12-10.01,14.02c-6.22,10.26-9.6,21.43-8.74,33.56
		c0.79,11.2,1.72,22.39,2.83,33.56c0.59,5.91,1.71,11.77,2.6,17.65c0.43-0.01,0.87-0.02,1.3-0.03c0.29-2.99,0.75-5.97,0.83-8.97
		c0.1-3.63-0.64-7.36-0.08-10.9c1.04-6.55,3.11-12.83,7.23-17.16c-0.95,7.79-2.11,16.19-2.97,24.63c-0.87,8.5-1.46,17.03-2.16,25.49
		c5.53-5.12,10.61-10.63,12.26-18.55c0.54-2.58,1.58-5.13,2.76-7.5c9.48-19.14,19.05-38.25,28.62-57.35c0.41-0.81,1.1-1.47,1.66-2.2
		c0.36,0.16,0.71,0.31,1.07,0.47c-0.6,2.65-0.73,5.54-1.88,7.92c-8.18,16.94-16.71,33.7-24.83,50.67
		c-4.46,9.33-6.64,19.13-4.21,29.58c3.21,13.78,6.22,27.61,9.35,41.42c0.17,0.75,0.56,1.45,1.15,2.95
		c0.82-6.99,1.87-13.02,2.14-19.07c0.29-6.65-0.25-13.34-0.25-20.01c0-28.76,9.88-54.03,27.16-76.68c1.05-1.38,2-2.83,2.9-4.31
		c10.71-17.64,15.87-37.25,20.13-57.17c0.28-1.31,0.65-2.6,0.98-3.9c0.33,0.05,0.67,0.09,1,0.14c0.09,0.95,0.38,1.93,0.24,2.85
		c-1.11,7.65-1.47,15.53-3.63,22.89c-5.71,19.47-15.44,37.3-25.72,54.58c-9.59,16.11-15.64,32.93-17.64,51.43
		c-1.74,16.05-0.71,31.81,7.69,45.85c16.75,28.01,31.74,56.9,45.16,86.63c1.15,2.55,2.44,5.04,3.66,7.56c0.4-0.1,0.8-0.2,1.2-0.3
		c-0.26-3.36-0.12-6.82-0.85-10.07c-1.61-7.16-3.76-14.2-5.49-21.34c-4.91-20.22-11.33-40.11-11.93-61.23
		c-0.47-16.71,0.6-33.11,6.2-49c0.28-0.79,0.79-1.49,1.19-2.24c0.43,0.09,0.87,0.19,1.3,0.28c-0.29,1.76-0.37,3.58-0.91,5.26
		c-3.51,11.02-5.72,22.17-5.22,33.87c1.14,26.88,5.87,53.08,14.15,78.66c0.84,2.59,1.46,5.24,2.19,7.86c1.09-2.04,1.43-4,1.39-5.95
		c-0.62-26.23,0.35-52.41,3.54-78.45c1.21-9.91,2.65-19.81,7.15-29.04c3.14-6.44,5.92-13.16,7.83-20.05
		c2.89-10.41,4.24-21.28,7.5-31.55c2.11-6.66,3.44-13.06,2.85-19.94c-0.47-5.45-1.01-10.9-1.14-16.37
		c-0.04-1.85,1.06-3.72,1.64-5.58c0.61,0.07,1.22,0.14,1.83,0.21c0.54,4.84,1.44,9.66,1.54,14.51c0.12,6-0.09,12.06-0.74,18.03
		c-0.87,7.91-1.35,16.05-3.69,23.57c-4.79,15.41-10.71,30.46-16.14,45.67c-4.62,12.95-3.65,26.33-3.17,39.7
		c0.6,16.82,3.79,33.05,8.94,49.1c4.23,13.17,7.61,26.71,10.08,40.32c1.75,9.65,1.33,19.7,1.96,29.56c0.12,1.87,0.63,3.72,0.95,5.57
		c0.35-0.05,0.71-0.11,1.06-0.16c7.46-27.55,9.94-55.2,1.78-83.07c11.95,34.13,6.88,67.62-4.32,101.12
		c1.51-0.56,2.45-1.32,3.21-2.24c5.87-7.11,11.98-14.04,17.48-21.43c18.02-24.23,33.37-49.68,36.46-80.74
		c1.96-19.75,3.95-39.56-1.04-59.03c-5.27-20.56-11.64-40.84-17.41-61.28c-1.19-4.21-2.57-8.57-2.6-12.87
		c-0.07-9.61,0.52-19.24,1.13-28.84c0.16-2.57,1.39-5.07,2.13-7.6c0.52,0.09,1.04,0.18,1.57,0.27c0,3.38,0.38,6.81-0.06,10.13
		c-2.86,21.24-0.86,41.97,7.02,61.88c11.05,27.94,20.63,56.14,21.95,86.57c0.72,16.56,2.85,33.1-2.51,49.32
		c-0.35,1.07-0.05,2.35-0.05,3.54c1.49-0.53,2.13-1.17,2.57-1.92c15.54-27.18,30.17-54.73,38.21-85.3
		c3.11-11.84,6.42-23.77,5.14-35.91c-2.19-20.81-7.13-41.11-17.53-59.56c-7.77-13.78-14.44-27.99-19.66-42.91
		c-0.98-2.81-1.43-5.61,0.4-8.36c0.94,1.14,1.5,2.3,1.67,3.52c1.51,10.67,6.15,20.07,11.44,29.28
		c10.73,18.68,20.8,37.68,25.92,58.83c2.36,9.73,4.6,19.49,6.91,29.24c1.02,4.29,2.08,8.58,3.12,12.86
		c1.64-1.83,2.67-3.59,3.14-5.49c1.82-7.39,3.37-14.85,5.19-22.24c2.76-11.2,1.47-22.02-2.76-32.6
		c-8.75-21.86-21.36-41.57-34.78-60.72c-8.74-12.47-11.79-26.95-16.35-40.95c-0.03-0.08,0.13-0.22,0.59-0.93
		c0.75,1.53,1.48,2.7,1.92,3.96c6.56,18.95,15.71,36.52,27.71,52.62c12.42,16.65,23.13,34.28,31,53.62
		c2.29,5.64,6.03,10.69,9.11,16.02c0.56-0.14,1.12-0.28,1.68-0.42c-1.06-11.76-2.02-23.54-3.22-35.29
		c-1.61-15.8-9.97-28.34-19.91-40.1c8.47,7.74,15.47,16.44,19.12,27.44c5.43,16.35,6.37,33.25,6.12,50.29c-0.03,1.87,0,3.74,0,5.62
		c0.36,0.02,0.72,0.04,1.08,0.06c0.33-1.12,0.75-2.22,0.97-3.35c4.32-22.69,8.67-45.38,12.87-68.1c0.6-3.25,0.99-6.7,0.6-9.95
		c-1.38-11.47-4.38-22.38-10.31-32.57c-9.12-15.69-18.29-31.43-26.09-47.79c-5.41-11.36-8.57-23.8-12.7-35.76
		C365.31,583.47,367.63,582.31,369.55,580.87z M458.3,426.33c0.36-0.08,0.71-0.16,1.07-0.24c0.04-0.48,0.16-0.98,0.11-1.45
		c-0.97-10.38-1.81-20.77-2.96-31.13c-2.35-21.14-5.52-42.06-13.57-62.02c-5.78-14.34-12.06-28.23-22.53-39.87
		c-11.73-13.03-25.73-23.24-40.2-32.92c-15.52-10.38-31.96-13.06-49.49-6.08c-10.14,4.04-19.93,8.99-30.16,12.77
		c-14.68,5.43-23.97,15.95-30.31,29.69c-6.48,14.04-8.57,29.12-10.71,44.22c-1.55,10.91,2.39,20.36,7.35,30.71
		c2.76-5.44,5.29-10.11,7.53-14.92c7.09-15.23,16.43-28.78,29.59-39.37c3.8-3.06,7.98-6.06,12.49-7.73
		c7.97-2.95,16.34-4.85,24.53-7.22c15.06-4.35,29.45-2.38,42.71,5.65c9.71,5.87,18.77,12.69,25.69,22.04
		c5.64,7.62,12.73,14.28,17.59,22.32c8.78,14.51,15.42,30.14,20.77,46.3C451.06,406.9,454.79,416.58,458.3,426.33z M245.44,341.28
		c-0.14-1.68-0.2-3-0.35-4.31c-1.6-14-1.74-27.95,0.36-41.96c2.28-15.16,7.15-29.34,17.61-40.53c9.92-10.61,21.15-19.99,34.11-27.03
		c5.86-3.18,12.22-6.04,16.99-10.5c8.99-8.4,20.3-10.51,31.34-13.04c9.46-2.17,19.27-3.01,28.98-3.83c15.39-1.3,30.4,0.4,44.55,7.23
		c18.61,8.98,34.87,21.11,49.22,35.96c6,6.2,12.62,11.81,18.96,17.69c0.32-1.69-0.07-2.9-0.58-4.06
		c-6.42-14.53-12.94-29.02-19.27-43.6c-4.66-10.72-11.35-19.45-21.74-25.35c-18.28-10.38-37.77-17.54-58.26-21.7
		c-24.01-4.87-47.04-2.23-68.07,11.48c-11.19,7.29-22.58,14.28-33.58,21.83c-7.36,5.05-14.95,10.12-21.12,16.46
		c-12.52,12.87-23.11,27.38-30.77,43.74c-4.21,9-7.06,18.35-5.29,28.69c2.53,14.74,4.45,29.59,6.8,44.37
		C236.18,338.11,239.22,340.53,245.44,341.28z M252.65,349.16c0.52-0.09,1.05-0.18,1.57-0.27c0.58-4.6,1.14-9.19,1.73-13.79
		c2.41-18.54,6.39-36.57,16.55-52.69c4.57-7.26,10.3-13.1,17.98-17.23c15.07-8.11,30.64-14.95,46.78-20.68
		c18.43-6.56,37.15-9.32,56.71-7.29c10.77,1.12,20.15,4.02,28.83,11.13c13.8,11.3,27.76,22.19,36.99,37.89
		c1.25,2.12,3.21,3.95,5.18,5.49c8.08,6.33,16.28,12.5,24.45,18.72c0.83,0.63,1.71,1.18,2.57,1.77c0.28-0.26,0.57-0.51,0.85-0.77
		c-7.91-18.36-15.85-36.71-23.72-55.09c-3.34-7.81-8.45-14.12-15.23-19.24c-9.38-7.08-18.72-14.23-27.86-21.61
		c-6.73-5.44-14.04-9.28-22.78-9.75c-12.66-0.68-25.36-1.99-37.99-1.53c-8.09,0.3-16.21,2.89-24.08,5.24
		c-5.96,1.78-11.62,4.65-17.27,7.31c-5.42,2.55-11.19,4.78-15.89,8.36c-14.11,10.75-28.06,21.76-41.49,33.33
		c-8.99,7.75-14.02,18.05-14.71,30.19c-0.21,3.6-0.75,7.18-1.15,10.76c-1.49,13.31-2.5,26.63-0.29,39.96
		C250.91,342.68,251.87,345.9,252.65,349.16z M420.2,170.97c0.4-0.5,0.81-1,1.21-1.49c-1.07-0.52-2.32-0.84-3.18-1.6
		c-16.82-14.98-36.82-21.06-58.97-21.05c-20.27,0-40.28,2.28-59.87,7.58c-13.26,3.59-26.78,6.61-39.55,11.53
		c-13.65,5.26-23.96,15.96-33.96,26.28c-13.69,14.12-19.26,32.05-21.13,51.26c-2.72,27.97,2.31,55.12,8.98,82.06
		c0.32,1.3,2.13,2.24,3.25,3.35c0.31-0.26,0.63-0.52,0.94-0.77c-1.37-12.85-2.71-25.7-4.13-38.54c-1.64-14.89-1.49-29.55,3.75-43.91
		c6.64-18.2,18.29-33.05,30.8-47.38c0.05-0.06,0.44,0.19,1.25,0.56c-0.79,1.09-1.51,2.1-2.25,3.08
		c-3.95,5.22-8.06,10.33-11.82,15.68c-8.5,12.07-13.99,25.65-17.17,39.86c-5.19,23.21-0.48,46.27,3,69.25
		c0.58,3.86,3.34,5.81,7.11,6.22c-0.94-9.54-2-18.92-2.77-28.32c-0.89-10.76-1.61-21.53-2.2-32.31c-0.09-1.57,0.8-3.3,1.58-4.78
		c2.63-4.94,6.04-9.55,8.04-14.72c7.1-18.28,19.91-32.11,34.07-44.92c15.52-14.03,32.86-25.63,50.68-36.44
		c6.06-3.68,12.94-6.39,19.8-8.24c11.33-3.06,22.95-5.78,34.82-3.48c11.79,2.28,23.5,5,35.21,7.69
		C411.92,168.36,416.04,169.77,420.2,170.97z M396.64,149.01c0.18-0.27,0.36-0.55,0.54-0.82c-1.91-1.92-3.49-4.58-5.8-5.65
		c-11.35-5.23-22.59-11.01-34.46-14.74c-13.31-4.18-27.45-4.2-41.37-3.42c-15.34,0.86-30.65,2.31-45.98,3.37
		c-16.61,1.14-30.18,8.31-41.29,20.44c-5.41,5.91-10.71,11.93-16.06,17.89c-6.42,7.15-13.19,14.02-19.19,21.51
		c-8.27,10.32-14.21,22.2-14.14,35.51c0.09,17.18,0.89,34.5,3.33,51.49c1.8,12.56,6.62,24.7,10.3,36.97
		c0.65,2.17,2.32,4.04,3.51,6.04c0.36-0.15,0.72-0.3,1.08-0.45c-1.53-5.46-2.63-11.09-4.66-16.36c-6.69-17.4-8.05-35.1-5.58-53.57
		c1.89-14.17,4.73-27.89,10.8-40.84c0.82-1.75,2.3-3.18,3.48-4.77c0.43,0.25,0.87,0.5,1.3,0.75c-0.74,1.89-1.4,3.82-2.22,5.67
		c-6.37,14.3-10.04,29.24-11.03,44.89c-0.73,11.57,2.81,22.48,4.54,33.67c1.62,10.45,3.51,20.85,8.4,30.37
		c1.49,2.9,3.59,5.48,5.41,8.2c0.33-0.21,0.65-0.43,0.98-0.64c-0.25-1.71-0.49-3.42-0.74-5.12c-0.12-0.79-0.2-1.6-0.39-2.37
		c-5.82-23.11-7.84-46.56-6.93-70.37c0.4-10.57,1.77-20.73,6.92-30.14c1.08-1.98,2.01-4.11,2.58-6.29
		c2.25-8.55,7.18-15.45,13.19-21.68c4.17-4.33,8.35-8.68,12.83-12.68c7.41-6.62,15.48-12.86,25.11-15.25
		c25.23-6.26,50.08-14.07,76.15-16.99c16.73-1.87,32.97-2.47,49.1,2.95C389.66,147.71,393.2,148.22,396.64,149.01z M331.3,118.62
		c-5.95-3.71-12.91-5.82-20.3-6.41c-18-1.45-35.74,0.19-53.28,4.54c-14.8,3.67-29.84,7-42.32,16.23
		c-14.37,10.64-28.18,22.04-42.1,33.28c-5.86,4.73-9.23,11.31-12.21,18.1c-8.05,18.31-9.43,37.67-7.2,57.04
		c1.92,16.66,5.64,33.15,9.32,49.55c1.24,5.52,4.78,10.52,7.27,15.76c0.59-0.13,1.18-0.26,1.77-0.4c0-1.44,0.27-2.94-0.04-4.31
		c-2.64-11.58-6.09-23.03-7.92-34.73c-2.12-13.56-4.37-27.39-3.86-41c0.88-23.75,13.65-42.79,28.25-60.58
		c0.35-0.42,1.25-0.39,2.99-0.87c-1.49,2.58-2.26,4.42-3.45,5.92c-7.89,9.95-12.57,21.65-18.46,32.72
		c-6.73,12.66-8.11,25.83-6.6,39.65c2.6,23.82,12.51,45.47,20.23,67.77c0.47,1.36,1.98,2.35,3.01,3.51
		c0.45-0.99,0.39-1.51,0.25-2.01c-5.54-20.37-10.52-40.74-11.65-62.06c-0.92-17.41-2.22-34.51,6.41-50.48
		c7.43-13.74,12.64-29.11,26.98-37.98c0.66-0.41,1.14-1.12,1.72-1.68c9.32-9.01,18.44-18.24,28.07-26.91
		c3.03-2.72,7.2-4.82,11.19-5.73C276.43,121.41,304.05,120.3,331.3,118.62z M120.12,374.52c7.88,11.69,15.44,22.9,23.33,34.6
		c7.98-10.79,15.44-21.21,23.27-31.35c8.31-10.77,11.16-22.74,8.19-35.85c-2.48-10.95-5.25-15.37-14.95-15.78
		c-1.05-0.04-2.15-0.29-3.12-0.7c-7.31-3.11-14.61-2.27-21.96-0.13c-3.71,1.08-7.48,1.99-11.24,2.9c-0.72,0.18-1.52,0.03-2.28,0.03
		c11.7-6.28,24.25-8.71,37.25-10.28c-2.8-1.24-5.66-2.38-8.56-2.5c-7.07-0.28-14.16-0.09-21.25-0.09c-6.28,0-11.41,3.08-14.6,7.86
		c-4.05,6.08-6.8,13.04-10.11,19.62c8.89-2.4,16.87-5.75,25.11-8.27c8.33-2.54,16.94-3.06,25.49-1.54c0.03,0.33,0.05,0.66,0.08,1
		c-0.8,0.25-1.59,0.5-3.16,0.99c5.02,1.01,9.28,1.87,13.53,2.73c-0.07,0.43-0.14,0.85-0.21,1.28c-1.63,0-3.35,0.35-4.88-0.05
		c-13.41-3.55-26.24-1.49-38.62,4.09c-2.18,0.98-3.81,3.16-5.7,4.79c0.23,0.3,0.46,0.6,0.69,0.9c8.84-2.52,17.69-5.05,26.53-7.57
		c0.14,0.48,0.28,0.96,0.41,1.44c-5.37,1.89-10.85,3.52-16.08,5.75c-5.04,2.15-9.82,4.92-14.71,7.41c0.18,0.4,0.37,0.81,0.55,1.21
		c16.6-3.15,33.11-7.13,50.27-5.16c-2.72,1-5.53,1.41-8.33,1.8c-6.48,0.89-13.01,1.47-19.41,2.73c-7.4,1.46-10.19,5.65-9.78,13.01
		c0.05,0.91-0.92,2.1-1.74,2.79C123.08,373.08,121.7,373.63,120.12,374.52z M161.03,301.28c0.33-0.19,0.66-0.37,1-0.56
		c-0.5-1.43-0.99-2.86-1.51-4.28c-1.92-5.24-4.37-10.34-5.69-15.72c-4.83-19.69-6.81-39.8-6.67-60.01
		c0.13-18.66,3.6-36.77,17.27-50.71c17.31-17.66,35.71-34.24,57.52-46.32c14.33-7.94,29.61-13.81,46.15-14.82
		c12.39-0.75,24.84-0.44,37.27-0.6c1.4-0.02,2.8,0,4.88,0c-0.78-1.15-1-1.86-1.48-2.14c-10.73-6.22-22.43-9.31-34.59-7.22
		c-14.71,2.52-29.49,5.48-43.68,10c-20.98,6.68-41.42,15.05-58.58,29.53c-2.68,2.26-4.64,5.36-7.32,8.53
		c2.08,0.49,2.88,0.68,3.1,0.73c-5.24,6.75-10.78,13.25-15.61,20.24c-10.36,14.99-18.26,31.26-20.82,49.41
		c-2.21,15.64,0.36,31.21,4.05,46.46c2.71,11.2,6.53,22.04,13.86,31.25c0.49,0.62,1.17,1.09,1.77,1.63c0.3-1.78-0.05-3.15-0.54-4.47
		c-2.14-5.75-4.3-11.5-6.5-17.24c-9.95-25.95-11.86-52.18-2.8-78.79c0.49-1.44,1.34-2.75,2.03-4.12c0.45,0.14,0.89,0.27,1.34,0.41
		c0,1.23,0.15,2.48-0.03,3.68c-0.39,2.64-0.93,5.26-1.45,7.88c-2.07,10.35-4.42,20.62-2.99,31.35c2.79,20.93,9.15,40.87,16.38,60.57
		C158.09,297.91,159.79,299.51,161.03,301.28z M362.78,338.09c3.47,0.52,6.17,0.47,8.5,1.36c14.32,5.44,28.53,11.17,42.83,16.65
		c5,1.92,10.09,3.51,12.91,8.64c0.12,0.23,0.68,0.22,1.04,0.32c0.77-3.54-7.85-15.31-11.8-16.25c-2.2-0.52-4.4-1.08-6.61-1.6
		c-4.36-1.02-8.79-1.78-13.05-3.12c-2.94-0.93-5.63-2.66-8.43-4.04c0.2-0.41,0.4-0.82,0.6-1.24c10.4-2.15,18.84,4.67,28.64,6.16
		c-2.13-2.21-4.4-4.59-7.08-5.23c-9.58-2.28-19.23-4.64-28.99-5.66c-8.1-0.84-16.39,0.18-25.06,0.39
		c1.09,11.55,2.13,22.02,3.07,32.5c1.15,12.97,6.82,23.48,17.16,31.34c4.67,3.55,9.57,6.81,14.51,9.98c4.15,2.65,5.22,2.36,8.1-1.88
		c4.2-6.18,8.3-12.43,12.36-18.7c1.44-2.22,3.56-4.54,3.67-6.9c0.1-2.19-2.05-4.5-3.24-6.82c2.6-1,5.52-2.13,8.39-3.24
		c-2.17-2.16-4.1-4.08-6.03-6.01c0.23-0.37,0.46-0.75,0.68-1.12c2.48-0.12,4.96-0.24,7.96-0.39c-16.35-9.42-33.35-15.09-51.12-18.63
		C368.34,343.92,365.01,343.04,362.78,338.09z M362.56,243.82c8.42,4.66,16.44,9.05,24.42,13.52c13.49,7.55,23.09,19.76,34.97,29.24
		c2.07,1.66,3.91,3.63,5.74,5.57c9.88,10.48,14.17,24.04,20.28,36.62c2.05,4.22,4.92,8.24,8.17,11.64
		c8.31,8.67,17.04,16.94,25.62,25.34c0.21,0.2,0.69,0.12,1.17,0.19c0.05-0.79,0.19-1.46,0.1-2.1c-0.15-1.05-0.44-2.08-0.71-3.12
		c-5.32-20.32-11.84-40.17-21.13-59.12c-6.6-13.46-15.18-25.03-27.01-34.29c-7.26-5.68-14.27-11.7-21.12-17.87
		c-6.45-5.81-13.75-8.43-22.38-7.69c-6.79,0.59-13.61,0.9-20.41,1.37C367.68,243.32,365.1,243.59,362.56,243.82z M131.86,266.6
		c0.26-0.59,0.38-0.73,0.36-0.83c-0.19-0.77-0.43-1.53-0.62-2.3c-6.55-26.02-7.24-51.36,7.29-75.46
		c6.87-11.41,12.5-23.56,19.23-35.06c5.39-9.21,12.87-16.7,22.05-22.3c8.76-5.35,17.33-11.11,26.47-15.72
		c9.35-4.72,19.31-8.24,28.99-12.32c0.49-0.21,0.89-0.64,1.33-0.97c-0.09-0.36-0.18-0.72-0.28-1.08c-3.75,0.4-7.87-0.08-11.18,1.35
		c-11.6,5-23.03,10.44-34.29,16.17c-5.32,2.71-10,6.64-15.15,9.7c-25,14.82-41.71,36.18-50.48,63.79
		c-5.19,16.32-4.07,33.01-2.22,49.66C124.35,250.14,128.03,258.23,131.86,266.6z M129.79,280.76c0.55-0.46,1.09-0.91,1.64-1.37
		c-10.14-20.78-15.58-42.57-14.11-65.75c1.48-23.28,10.5-43.76,23.82-62.76c-5.46,4.24-10.58,8.66-15.18,13.57
		c-6.16,6.58-9.32,14.81-9.62,23.64c-0.43,12.77-2.1,25.41-2.28,38.25c-0.26,18.28,4.93,34.38,13,50.11
		C127.84,277.95,128.87,279.32,129.79,280.76z M93.47,320.88c0.24,0.3,0.48,0.6,0.71,0.89c14.81-14.35,33.01-14.32,51.66-12.67
		c-10.25-8.45-21.99-6.3-34.06-5.08c1.25-1.79,2.18-3.14,3.67-5.27c-4.33,1.07-7.92,1.61-11.21,2.91c-2.08,0.82-4.51,2.41-5.39,4.31
		C96.64,310.74,95.21,315.88,93.47,320.88z M398.89,324.51c0.09-0.56,0.17-1.12,0.26-1.68c-2.44-0.67-4.94-2.06-7.32-1.88
		c-8.92,0.67-17.8,1.83-26.7,2.85c-1.71,0.2-3.72,0.16-5.02,1.06c-1.23,0.85-1.99,2.72-2.32,4.28c-0.09,0.4,2.19,1.84,3.42,1.9
		c10,0.47,20.03,0.43,30.01,1.14c5.91,0.42,11.75,1.88,17.89,2.93c-2.78-4.61-6.28-6.9-11.64-6.62c-3.73,0.19-7.52-0.66-11.28-1.04
		c0-0.34,0-0.68,0-1.02C390.43,325.78,394.66,325.14,398.89,324.51z M330.71,308.74c-7.57,0.96-15.61,0.9-17.38,10.68
		c-0.18,0.98-1.09,1.81-1.57,2.76c-2.42,4.73-4.8,9.48-7.44,14.7c5.09-0.52,7.81-2.85,10.1-6.27c4.07-6.05,8.44-11.9,12.75-17.79
		C328.22,311.37,329.52,310.09,330.71,308.74z M285.36,346.18c15.24-2.34,16.89-15.97,22.51-26.29
		C298.5,327.01,291.12,335.81,285.36,346.18z M390.9,317.78c-5.39-7.5-19.94-6.66-29.98,3.28
		C370.92,319.97,380.67,318.9,390.9,317.78z M338.85,307.9c-0.47-0.34-0.94-0.68-1.41-1.02c-6.48,8.02-12.96,16.04-19.43,24.05
		c0.42,0.47,0.84,0.94,1.26,1.41c2.26-1.58,5.13-2.71,6.66-4.81C330.52,321.19,334.58,314.47,338.85,307.9z M330.88,327.34
		c0.37,0.2,0.74,0.4,1.11,0.59c6.77-7.32,13.54-14.64,20.61-22.28c-5.12-0.23-7.03,0.52-9.34,3.61
		c-3.91,5.24-7.77,10.51-11.59,15.81C331.22,325.69,331.14,326.57,330.88,327.34z M360.09,306.74c-4.46-0.98-11.11,5.2-17.22,15.74
		C352.2,320.92,354.32,312.02,360.09,306.74z M358.71,315.63c5.84-2.37,10.9-4.43,16.15-6.57
		C368.02,304.47,363.4,306.23,358.71,315.63z"/>
	<path class="st0" d="M1021.43,738.09c-2.67,6.22-5.09,12.57-8.07,18.65c-4.12,8.39-8.48,16.66-13.07,24.8
		c-3.22,5.71-8.24,9.74-13.92,12.96c-3.71,2.1-7.48,2.09-11.09,0.09c-5.1-2.81-10.05-5.88-14.74-8.64
		c-3.65,5.36-7.09,11.25-11.39,16.43c-2.83,3.41-6.53,6.51-10.47,8.49c-11.03,5.54-22.55,2.92-30.08-6.93
		c-3.68-4.8-6.17-10.51-9.18-15.77c-1.79,2.79-3.8,6.18-6.06,9.39c-5.59,7.97-12.45,9.6-21.29,5.65
		c-12.43-5.56-19.35-14.7-19.35-28.61c0-1.97,0-3.94,0-7.17c-3.23,3.35-5.69,5.85-8.09,8.41c-5.36,5.71-11.34,10.55-18.61,13.65
		c-12.73,5.43-22.05,2.98-29.99-7.39c-4.12,3.67-8.15,7.52-12.47,11.02c-4.53,3.67-9.53,3.77-14.59,0.93
		c-2.56-1.44-5.14-2.84-7.64-4.38c-7.82-4.81-11.66-11.59-11.39-21.01c0.67-23.64,6-46.02,17.13-66.94
		c3.65-6.86,4.33-7.11,11.56-5.08c9.53,2.67,9.93,3.48,6.46,12.61c-7.92,20.85-12.76,42.45-15.27,64.57
		c-0.4,3.52,0.16,7.16,0.27,10.74c0.57,0.21,1.13,0.43,1.7,0.64c4.42-3.72,8.85-7.43,13.37-11.23c-0.08,0.72-0.17,1.53-0.27,2.39
		c4.17-0.54,7.96-4.21,7.69-7.6c-0.86-10.81,1.75-21,5.75-30.85c4.74-11.65,11.64-22.01,20.89-30.54c3.88-3.57,8.44-6.54,13.05-9.14
		c5.43-3.06,11.41-3.56,17.48-1.69c8.05,2.48,16.04,4.94,22.77,10.43c1.96,1.6,4.75,2.45,7.3,3.03c7.27,1.67,7.71,2.66,5.78,9.85
		c-3.73,13.91-7.82,27.79-10.39,41.94c-1.75,9.63-1.38,19.68-1.55,29.55c-0.08,4.28,1.61,4.84,5.21,2.35
		c8.49-5.88,14-14.31,18.96-23.02c1.45-2.54,0.62-6.28,1.22-9.4c3.9-20.46,7.91-40.9,11.88-61.35c0.25-1.29,0.55-2.56,0.76-3.54
		c-7.26-1.17-14.25-2.05-21.12-3.53c-2.15-0.46-3.95-2.54-6.87-4.54c2.63-0.99,4.32-1.95,6.12-2.24c7.38-1.21,14.78-2.37,22.21-3.2
		c2.68-0.3,3.86-1.11,4.57-3.81c3.48-13.17,7.16-26.29,10.93-39.37c0.77-2.66,2.01-5.25,3.42-7.65c1.38-2.35,3.28-2.83,6.09-1.46
		c3.79,1.85,8.04,2.73,11.87,4.51c1.11,0.52,2.15,2.76,2.02,4.09c-0.76,7.56-1.71,15.12-2.96,22.62
		c-1.01,6.03-2.53,11.97-4.01,18.79c3.34,0,6.24-0.22,9.1,0.04c7.04,0.64,14.08,1.31,21.05,2.4c1.79,0.28,3.33,2.16,4.99,3.3
		c-1.64,0.96-3.18,2.49-4.93,2.8c-10,1.76-20.03,3.31-30.08,4.74c-2.25,0.32-3.5,0.8-4.02,3.36c-5.7,28.27-13.11,56.24-15.29,85.14
		c-0.43,5.73-0.06,11.52-0.06,17.29c0.44,0.2,0.88,0.39,1.32,0.59c4.39-4.21,8.84-8.36,13.15-12.66c2.17-2.16,4.06-4.62,6.16-6.87
		c1.39-1.48,2.51-3.03,5.2-2.87c3.33,0.2,4.45-2.39,4.43-5.49c-0.11-24.07,5.01-46.93,15.9-68.44c4.84-9.56,5.65-9.9,15.69-6.34
		c6.28,2.22,6.76,2.99,4.35,9.23c-7.84,20.3-12.7,41.33-15.73,62.83c-1.12,7.93-0.92,11.61,1.3,15.74
		c4.76-3.98,9.38-7.84,13.88-11.6c-0.1,0.69-0.23,1.63-0.43,2.96c1-0.28,1.76-0.27,2.19-0.64c3.59-3.12,8.01-5.74,10.47-9.6
		c5.23-8.19,9.38-17.05,14.06-25.6c1.44-2.63,3.16-5.1,4.75-7.65C1021.43,734.88,1021.43,736.49,1021.43,738.09z M809.07,774.14
		c-0.12,7.87,3.69,10.31,10.38,6.59c2.86-1.59,5.6-3.7,7.81-6.11c6.85-7.48,13.44-15.19,20.08-22.85
		c5.48-6.32,9.52-13.46,12.41-21.33c2.03-5.54,3.82-10.84-1.58-15.55c-0.28-0.25-0.5-0.66-0.58-1.04c-1.09-4.64-3.89-3.72-6.89-2.13
		c-1.18,0.62-2.36,1.25-3.52,1.9c-14.53,8.15-23.22,21.32-30.4,35.69C812.83,757.23,809.72,765.47,809.07,774.14z"/>
	<path class="st0" d="M542.32,815.87c-20.64-1.34-40.35-2.62-60.07-3.9c-0.1-0.21-0.2-0.42-0.3-0.63c4.77-1.69,9.46-3.7,14.33-5.01
		c15.45-4.15,31.22-4.11,47.01-2.89c4.31,0.33,7-1.05,9.28-4.62c18.56-29.09,38.01-57.61,60.39-83.88
		c18.71-21.96,38.17-43.34,58.28-64.02c11.97-12.31,25.85-22.76,38.87-34.04c1.81-1.56,3.62-3.12,5.45-4.71
		c-4.25-3.42-11.02-4.21-16.62-1.4c-4.26,2.14-8.65,4.5-12.11,7.69c-14.59,13.49-31.88,19.72-51.47,19.76
		c-29.55,0.05-59.11,0.11-88.65-0.43c-19.41-0.36-33.33-10.02-41.61-27.62c-0.85-1.8-1.47-3.74-1.9-5.68
		c-1.76-8.01,1.64-12.17,9.84-11.81c14.29,0.63,28.57,1.54,42.86,2.15c37.27,1.59,74.57,3.75,111.82,0.23
		c9.76-0.92,19.45-3.37,28.98-5.88c9.74-2.57,19.06-2.44,27.16,3.65c8.67,6.52,17,7.78,27.35,3.77c9.56-3.7,20.02-3.29,30.01-0.26
		c13.34,4.06,21.53,10.32,19.87,27.82c20.31,5.42,41.15,5.97,62.09,5.51c0.09,0.36,0.18,0.72,0.26,1.08
		c-0.93,0.46-1.83,0.97-2.78,1.36c-18.95,7.75-38.81,8.67-58.77,6.74c-8.92-0.86-16.02,0.81-23.41,6.08
		c-36.64,26.09-71.72,54.04-104.19,85.19c-25.01,24-48.45,49.45-69.79,76.8c-0.89,1.15-1.72,2.35-2.92,3.99
		c4.23,0.92,8.03,1.91,11.9,2.53c3.51,0.56,5.45,2.54,7.28,5.5c2.62,4.23,5.33,8.94,9.23,11.71c7.25,5.13,14.94,2.44,21.77-1.81
		c5.09-3.17,9.92-6.83,14.51-10.69c9.34-7.86,20.08-12.16,32.11-13.04c34.45-2.52,68.96-3.35,103.38-0.31
		c16.93,1.5,30.33,9.91,37.9,25.84c1.46,3.07,2.43,6.56,2.75,9.94c0.58,6.2-2.53,9.31-8.74,9.12c-8.02-0.25-16.03-0.77-24.04-1.17
		c-40.87-2.06-81.73-4.21-122.67-2.09c-13.14,0.68-26.05,2.46-38.57,6.67c-9.5,3.2-18.42,1.42-26.96-3.36
		c-9.2-5.15-18.44-10.23-27.65-15.36c-6.34-3.53-7.21-3.36-11.43,2.47c-7.19,9.94-17.58,13.53-28.05,9.51
		c-5.78-2.22-10.29-6.14-13.66-11.32c-2.68-4.12-2.92-8.51-1.11-13.03C540.2,820.42,540.96,818.89,542.32,815.87z M665.29,727.99
		c-0.34,0.13-0.68,0.27-1.02,0.4c-0.66-1.07-1.34-2.13-1.96-3.22c-2.42-4.3-4.73-8.68-7.27-12.92c-1.99-3.32-4.37-3.28-7.16-0.07
		c0.57,1.14,1.15,2.3,1.88,3.75c-0.91,0.18-1.52,0.29-2.12,0.42c-5.15,1.11-7.13,3.72-5.84,8.86c1.22,4.89,3.07,9.64,4.76,14.4
		c1.25,3.53,3.86,3.88,7.15,2.96c5.2-1.46,4.52-5.5,4.22-9.43c4.08,1.4,8.57-0.11,9.17-3.61c0.62-3.61,0.14-7.41,0.14-11.07
		c3.24,3.43,5.5,4.56,7.7,3.15c5.09-3.26,2.54-8.32,2.58-12.73c1.7,0.46,3.31,1.1,4.96,1.29c5.19,0.58,8.24-1.6,8.36-6.15
		c0.16-6.09,0.04-12.18,0.04-18.73c7.24,8.57,8.66,9.19,12.77,6.6c-3.58-9.99-7.1-19.81-10.62-29.62c1.58,0.76,2.26,1.89,3,2.99
		c3.37,4.97,6.6,10.05,10.21,14.84c2.12,2.81,5.68,3.93,8.53,2.01c1.36-0.91,1.9-4.7,1.24-6.65c-2.54-7.56-5.7-14.92-8.67-22.34
		c-0.52-1.31-1.27-2.53-1.91-3.79c-0.53,0.48-1.06,0.95-1.59,1.43c3.67,8.56,8.35,16.77,9.68,26.2c-1.46-0.87-2.31-2.01-3.13-3.17
		c-4.54-6.44-9.06-12.9-13.61-19.34c-0.77-1.09-1.42-2.63-2.49-3.06c-2.08-0.83-4.42-1.01-6.65-1.47c-0.17,1.67-0.84,3.49-0.41,5
		c1.28,4.49,2.96,8.86,4.53,13.26c0.97,2.73,2.01,5.44,3.02,8.15c-1.8-1.68-2.97-3.61-4.24-5.47c-1.35-1.99-2.72-3.97-4.22-5.85
		c-2.4-2.99-4.84-3.15-8.55-0.37c6.88,7.68,11.27,16.4,10.46,27.03c-1.59-1.86-2.51-4.18-4.12-5.83c-2.92-3.01-5.89-6.26-9.49-8.23
		c-4.54-2.48-8.23-0.01-7.93,5.12c0.22,3.74,1.62,7.46,2.75,11.1c1.93,6.22,4.12,12.36,6.07,18.57c0.35,1.12,0.05,2.44,0.05,4.64
		c-1.12-1.35-1.59-1.79-1.91-2.31c-4.43-7.15-8.8-14.34-13.27-21.46c-2.77-4.41-5.63-8.76-8.55-13.07c-2.1-3.1-4.71-1.82-7-0.35
		c-2.92,1.87-0.39,3.22,0.66,4.75c5.06,7.36,10.59,14.47,14.93,22.23C663.99,713.21,665.29,720.58,665.29,727.99z M632.13,737.23
		c3.73-0.57,5.43-2.97,4.63-6.16c-0.99-3.94-2.58-7.82-4.53-11.39c-1.63-2.97-5.43-3.46-7.95-1.16c-1.69,1.54-3.61,3.82-3.74,5.88
		c-0.44,6.71-0.84,13.57,0.12,20.17c0.92,6.28,5.21,7.68,11.12,4.89c1.81-0.85,3.58-1.8,5.45-2.48c0.77-0.28,2.28-0.24,2.53,0.2
		c0.43,0.75,0.56,2.22,0.09,2.85c-2.22,2.97-4.57,5.85-7.11,8.55c-0.93,0.99-2.55,1.96-3.77,1.86c-1.07-0.09-1.99-1.71-2.98-2.65
		c-0.6,2.02-0.82,4.42,0.27,5.69c0.78,0.91,3.53,0.82,5.06,0.26c5.99-2.2,10.66-6.27,13.15-12.13c0.82-1.93,0.47-5.29-0.78-6.87
		c-1.05-1.32-4.16-1.09-6.39-1.35c-0.72-0.08-1.51,0.47-2.27,0.7c-4.23,1.24-6.99,0.4-8.35-3.76c-1.51-4.61-2.12-9.54-2.81-14.38
		c-0.19-1.35,0.75-2.86,1.39-5.03C630.33,725.76,632.28,730.97,632.13,737.23z M773.4,623.95c-0.05-5.8-5.09-10.88-10.71-10.79
		c-5.63,0.09-10.62,5.27-10.56,10.96c0.06,5.69,5.22,10.65,10.94,10.51C768.62,634.5,773.45,629.51,773.4,623.95z M577.87,816.12
		c0.07-5.79-4.49-10.45-10.26-10.5c-5.84-0.05-10.53,4.44-10.62,10.17c-0.09,6.01,4.49,10.67,10.5,10.68
		C573.31,826.48,577.8,822,577.87,816.12z"/>
	<path class="st0" d="M971.13,521.8c-3.68,3.38-7.09,6.71-10.71,9.8c-16.81,14.35-44.12,15.93-62.52,3.7
		c-33.95-22.57-42.57-69.92-18.44-102.84c21.43-29.24,53.3-30.16,74.76-17.61c2.97,1.74,5.7,3.98,8.3,6.25
		c2.51,2.19,4.72,4.72,7.38,7.44c5.44-5.79,10.75-11.45,16.63-17.71c0.09,1.99,0.19,3.12,0.19,4.26
		c0.01,46.8,0.02,93.59-0.01,140.39c-0.01,19.75-5.82,37.31-19.71,51.83c-17.07,17.85-41.44,23.53-63.51,14.34
		c-11.25-4.68-20.14-12.42-27.08-23.03c3.78-3.51,7.48-6.93,11.48-10.64c1.36,1.7,2.56,3.23,3.79,4.73
		c17.74,21.57,50.82,20.95,68.01-1.09c7.81-10.02,11.45-21.33,11.62-33.85c0.16-11.5,0.05-23,0.05-34.5
		C971.36,522.8,971.22,522.32,971.13,521.8z M971.34,475.75c0.15-13.11-3.66-24.26-11.92-34.92c-14.28-18.42-42.51-21.61-59.7-6.86
		c-23.6,20.23-22.04,53.84-9.54,72.2c18.13,26.63,53.24,26.92,71.67,0.5C968.33,497.38,971.26,487,971.34,475.75z"/>
	<path class="st0" d="M531.14,539.57c-1.26,0.09-2.03,0.18-2.8,0.19c-3.99,0.02-7.98,0.01-12.24,0.01c0-72.4,0-144.49,0-216.59
		c0.18-0.09,0.37-0.18,0.55-0.27c25.7,51.2,51.4,102.4,77.11,153.61c0.21-0.01,0.42-0.02,0.63-0.04c0-50.2,0-100.4,0-150.83
		c5.41,0,10.27,0,15.37,0c0,72.3,0,144.39,0,217.75c-26.27-52.22-52.01-103.39-77.75-154.57c-0.29,0.06-0.58,0.12-0.87,0.18
		C531.14,439.13,531.14,489.25,531.14,539.57z"/>
	<path class="st0" d="M844.22,499.13c4.46,2.85,8.71,5.56,13.22,8.44c-3.33,7.26-7.76,13.51-13.3,18.99
		c-18.38,18.16-45.28,22.47-66.26,9.92c-19.17-11.47-30.14-28.82-33.17-50.91c-2.36-17.22,0.55-33.58,9.79-48.53
		c22.44-36.32,65.25-38.81,91.5-10.88c3.45,3.67,6.37,7.83,9.11,11.25c-25.99,26.59-51.48,52.66-77.03,78.8
		C793.46,535.75,827.44,527.46,844.22,499.13z M766.5,502.74c22.23-22.18,44.38-44.27,66.53-66.36
		c-14.62-14.87-40.44-15.76-56.1-1.67C758.07,451.66,753.7,481.17,766.5,502.74z"/>
	<path class="st0" d="M722.34,499.04c4.53,2.91,8.78,5.64,13.25,8.51c-3.3,7.57-7.91,13.87-13.6,19.39
		c-19.39,18.82-48.81,22.05-69.07,7.62c-19.76-14.08-30.04-33.3-30.57-57.49c-0.54-24.78,8.8-45.03,28.93-59.88
		c17.93-13.22,44.7-13.09,62.7,0.14c9.6,7.05,15.65,13.67,18.87,20.27c-12.94,13.34-25.63,26.52-38.43,39.58
		c-12.71,12.98-25.54,25.84-38.65,39.1c10.84,8.96,23.23,12.11,37.05,8.58C706.72,521.33,715.82,511.92,722.34,499.04z
		 M645.34,503.55c21.9-21.89,43.61-43.6,65.32-65.31c0.37-0.37,0.68-0.79,1.12-1.32c-0.5-0.55-0.9-1.06-1.37-1.49
		c-14.39-13.3-37.49-14.38-53.12-2.49C637.04,448.35,631.26,481.64,645.34,503.55z"/>
	<path class="st0" d="M990.86,650.1c6.58-0.56,11.41,2.32,14.99,7.85c2.42,3.73,2.14,7.38,0.22,10.98
		c-1.91,3.58-4.47,4.28-8.04,2.36c-4.1-2.21-8.02-4.75-12.12-6.94c-5.31-2.84-1.64-6.73-1.17-10.08
		C985.19,651.17,987.21,649.2,990.86,650.1z"/>
	<path class="st0" d="M787.25,649.98c4.78-0.34,9.64,2.12,13.27,7.51c2.37,3.51,2.49,6.97,0.99,10.59
		c-1.71,4.13-4.76,5.21-8.67,3.09c-4.2-2.28-8.26-4.83-12.43-7.16c-1.93-1.07-2.6-2.46-1.98-4.58c0.52-1.79,0.78-3.66,1.36-5.42
		C780.95,650.49,781.94,649.87,787.25,649.98z"/>
	<path class="st0" d="M305.02,494.53c7.02,5.93,10.36,14.01,12.82,22.58c0.63,2.18,1.38,4.33,1.98,6.52
		c1.33,4.92,3.83,8.25,8.67,11.03c6.61,3.8,12.1,9.55,18.02,14.53c0.52,0.43,0.89,1.4,0.84,2.08c-0.37,5.38,2.69,8.96,6.08,12.55
		c2.82,2.99,5.75,6.03,7.86,9.52c3.67,6.1,2.91,11.08-2.31,15.86c-4.8,4.39-7.32,9.42-7.85,16.02c-0.65,8.15-6,13.41-12.93,17.17
		c-5.04,2.73-10.24,5.22-15.03,8.34c-1.85,1.2-3.38,3.69-3.97,5.88c-2.32,8.64-4.15,17.41-6.29,26.1c-0.47,1.89-1.49,3.63-2.27,5.46
		c-3.35-0.62-2.68-2.75-2.33-4.67c1.34-7.36,2.73-14.71,4.1-22.07c2.09-11.23-0.55-17.47-10.71-22.83
		c-7.89-4.16-16.2-7.5-24.3-11.27c-3.63-1.69-7.2-5.03-10.73-4.94c-3.34,0.08-6.44,3.98-9.91,5.66c-6.11,2.94-12.29,5.85-18.68,8.05
		c-6.17,2.12-11.24,5.44-15.41,10.33c-0.78,0.91-1.33,2.21-2.31,2.74c-4.86,2.63-4.26,6.4-2.7,10.65
		c1.98,5.38,3.96,10.79,5.45,16.32c0.66,2.48,0.11,5.28,0.11,7.94c-0.45,0.02-0.9,0.03-1.34,0.05c-0.66-0.95-1.31-1.9-2.48-3.58
		c-4.31,24.26-7.39,48.3-22.3,68.47c0.83-2.06,1.58-4.17,2.51-6.19c7.98-17.48,14.32-35.41,14.97-54.89c0-0.13,0-0.27,0.04-0.4
		c4.05-12.3-0.44-23.65-4.03-35.06c-0.37-1.19-1.79-2.14-2.88-3c-6.41-5.01-12.98-9.83-19.25-14.99c-1.64-1.35-2.72-3.6-3.58-5.64
		c-2.71-6.36-4.88-12.97-7.83-19.21c-4.66-9.87-4.56-12.32,2.42-20.53c1.56-1.83,3.47-3.48,4.55-5.57c0.94-1.83,1.7-4.37,1.18-6.2
		c-0.91-3.16,0.13-5.25,2.19-7.12c6.33-5.75,12.82-11.33,19.08-17.15c1.7-1.58,3.07-3.68,4.1-5.78c1.52-3.11,2.93-6.34,3.81-9.67
		c4.24-16.02,16.09-25.32,29.18-33.58c0.15-0.09,0.48,0.11,1.45,0.36c-1.56,1.86-2.79,3.66-4.34,5.11
		c-3.51,3.29-7.03,6.6-10.82,9.55c-6.07,4.74-9.57,10.98-11.69,18.21c-0.94,3.2-2.11,6.33-3.18,9.49c-1.79,5.3-5.29,8.7-10.14,11.74
		c-5.19,3.25-9.63,8-13.62,12.75c-1.44,1.71-1.2,5.41-0.73,8.03c0.58,3.24-0.2,5.45-2.69,7.33c-1.06,0.8-2.05,1.72-3.05,2.6
		c-4.6,4.04-6.18,8.88-3.95,14.75c2.59,6.83,5.04,13.71,7.84,20.45c0.89,2.14,2.37,4.29,4.14,5.78c7.03,5.93,14.29,11.6,21.64,17.51
		c2.73-2.75,5.34-5.22,7.75-7.86c4.25-4.66,9.51-7.58,15.29-9.96c5.65-2.32,11.33-4.78,16.53-7.94c11.61-7.03,13.31-24.57,3.8-34.24
		c-3.25-3.31-6.05-7.07-9.13-10.56c-0.77-0.87-1.77-1.57-2.74-2.22c-3.86-2.61-7.92-4.95-11.58-7.81c-3.48-2.71-7.04-4.7-11.55-4.93
		c-1.78-0.09-3.54-0.78-5.3-1.2c-0.08-0.42-0.16-0.84-0.24-1.25c1.25-0.55,2.46-1.45,3.75-1.59c11-1.19,21.57-1.06,31.84,4.73
		c9.44,5.33,19.82,3.5,29.55-0.2c10.96-4.15,22.02-5.09,34.59-2.43c-2.43,1.6-4.02,3.36-5.92,3.79
		c-12.17,2.74-22.18,8.87-30.38,18.2c-2.02,2.3-4.31,4.41-6.7,6.33c-5.02,4.04-5.78,9.08-4.62,15.11
		c2.2,11.51,8.71,18.94,19.84,22.38c8.6,2.66,15.83,7.73,22.56,13.43c2.52,2.13,3.96,5.54,6.11,8.68c1.59-2.64,3.76-3.55,6.77-4.59
		c6.33-2.2,12.41-6.2,17.42-10.74c2.91-2.64,4.62-7.68,4.96-11.8c0.55-6.47,3.75-10.97,7.89-15.23c5.59-5.74,5.68-6.84,0.73-13.08
		c-2.73-3.44-5.42-6.92-8.33-10.65c-0.93,0.87-1.74,1.63-2.56,2.4c-0.21-0.15-0.52-0.26-0.55-0.42c-0.29-1.42-1.09-3.04-0.69-4.26
		c1.58-4.79-0.98-7.57-4.28-10.22c-3.23-2.6-6.48-5.19-9.49-8.03c-2.36-2.22-4.36-4.82-6.65-7.39c-0.21,0.29-0.76,1.07-1.74,2.45
		c-1.65-3.42-3.19-6.32-4.46-9.33c-2.85-6.77-5.31-13.72-8.46-20.34c-1.55-3.26-3.93-6.34-6.57-8.83
		c-3.77-3.57-8.13-6.51-12.21-9.74c-1.16-0.92-2.25-1.93-3.37-2.9c0.34-0.52,0.67-1.04,1.01-1.56c5.38,2.9,10.76,5.81,15.23,8.22
		c1.16-4.91,2.47-10.46,3.62-15.36c-5.73-2.61-11.45-5-16.95-7.81c-2.7-1.38-5.24-3.37-4.59-7.7c1.89,1.31,3.5,2.61,5.27,3.59
		c2.88,1.6,5.75,3.38,8.85,4.4c8.03,2.64,15.67,2.23,22.6-3.48c6.26-5.16,12.95-9.8,19.15-15.02c4.72-3.96,9.41-7.62,15.96-7.09
		c1.84,0.15,3.62,1.04,5.43,1.59c0.07,0.57,0.14,1.14,0.21,1.71c-1.9,0.73-3.79,1.51-5.72,2.17c-3.89,1.33-7.92,2.3-11.65,3.96
		c-3.28,1.47-3.23,3.16-0.21,5.05c3.27,2.06,6.64,3.98,9.96,5.97c2.78,1.67,3.73,3.58,1.31,6.46c-3.34,3.99-6.24,8.36-9.72,12.23
		c-7.02,7.79-15.76,10.06-25.84,7.17C312.53,487.79,309.39,488.7,305.02,494.53z M325,468.58c-4.2,2.24-9.31,2.73-9.77,7.2
		c-0.45,4.45,4.17,6.32,7.62,8.31c0.57,0.33,1.23,0.5,1.87,0.69c7.96,2.45,18.04-3.44,19.12-11.18c0.73-5.2-3.61-11.41-7.82-10.46
		c-3.61,0.81-6.92,2.93-10.37,4.47c6.76,2.5,8.79,4.17,7.89,7.13c-0.76,2.49-4.17,4.06-6.97,3.21
		C323.57,477.04,323.07,474.85,325,468.58z M269.23,566.74c6.16-6.97,11.81-13.36,18.23-20.63c-14.33,4.64-27.62,3.48-41.69,0.96
		c5.89,6.57,11.22,12.53,16.86,18.82c0.91-3.52,1.64-6.38,2.38-9.24c0.32-0.02,0.63-0.03,0.95-0.05
		C266.98,559.79,268.01,562.97,269.23,566.74z"/>
	<path class="st0" d="M176.71,466.14c5.44-3.41,10.48-6.57,15.78-9.89c-6.56-4.84-11.62-11.52-21.02-11.63
		c0.72-0.64,1.4-1.79,2.16-1.84c2.74-0.21,5.83-0.83,8.19,0.15c3.97,1.65,8.61,3.59,10.96,6.85c7.25,10.07,18.45,13.8,28.48,19.43
		c3.95,2.22,8.13,1.03,12.04-0.39c3.37-1.23,6.57-2.91,9.85-4.41c1.75-0.8,3.5-1.63,5.48-2.04c-3.66,5.72-8.99,9.27-15.07,11.62
		c-7.4,2.86-7.46,2.7-4.74,10.32c0.36,1,0.73,2.02,0.91,3.06c0.55,3.2-1.12,5.02-4.01,3.82c-6.43-2.66-12.95-2.69-19.68-1.98
		c-6.38,0.67-11.3-2.51-15.69-6.69c-1.35-1.29-2.64-2.66-3.82-4.11C183.31,474.49,180.18,470.5,176.71,466.14z M197.35,461.4
		c-8.47,4.59-10.06,11.7-3.32,16.89c3.42,2.64,7.97,4.36,12.26,5.17c4.31,0.82,8.39-1.28,11.09-5.03c2.19-3.04,1.42-5.24-2.01-6.43
		c-2-0.69-4.03-1.29-6.26-1.99c-1.41,2.57-2.79,5.08-4.14,7.54c-6.2-2.46-6.37-2.73-3.59-8.4c0.98-2.01,0.94-3.45-0.86-4.85
		C199.37,463.42,198.37,462.35,197.35,461.4z"/>
	<path class="st0" d="M276.31,843.59c-0.21-2.48-0.51-4.96-0.61-7.44c-0.54-13.27-5.5-25.48-8.79-38.11
		c-3.66-14.04-7.82-28.17-9.24-42.52c-1.25-12.58,0.83-25.52,1.8-38.28c0.21-2.81,1.78-5.57,3.02-8.23c1.03-2.22,0.78-3.87-0.7-5.84
		c-5.69-7.58-11.21-15.29-16.79-22.97c-0.76-1.04-1.44-2.14-1.78-3.56c9.5,1.81,12.16,11.43,19.21,16.3
		c0.27-0.53,0.66-1.3,1.19-2.32c4.33,4.43,4.9,9.33,3.21,15.03c-2.27,7.66-4.77,15.34-5.99,23.2c-3.25,20.98-0.19,41.44,5.78,61.7
		c4.03,13.67,7.27,27.59,10.45,41.49c0.83,3.64,0.13,7.64,0.13,11.47C276.89,843.53,276.6,843.56,276.31,843.59z"/>
	<path class="st0" d="M305.83,676.29c-0.18,2.29-0.06,4.66-0.59,6.87c-4,16.59-0.42,32.38,5.47,47.71
		c2.61,6.79,7.01,12.87,10.3,19.42c2.47,4.91,4.47,10.06,6.68,15.1c-0.42,0.2-0.83,0.39-1.25,0.59c-0.51-0.93-1.05-1.85-1.53-2.8
		c-2.5-4.85-4.36-10.17-7.59-14.47c-9.27-12.31-12.56-26.55-14.97-41.28c-1.62-9.94-1.39-19.66,1.86-29.23
		c0.24-0.7,0.55-1.37,0.83-2.06C305.3,676.19,305.57,676.24,305.83,676.29z"/>
	<path class="st0" d="M204.8,771.33c0.86-2.53,1.57-5.14,2.61-7.59c5.35-12.52,11.33-24.81,16-37.58c3.04-8.31,4.18-17.32,6.22-26
		c0.39-1.64,0.98-3.23,2.18-4.6c-0.76,28.06-14.66,51.61-25.71,76.14C205.67,771.57,205.24,771.45,204.8,771.33z"/>
	<path class="st0" d="M163.83,642.26c0.33-1.44,0.57-2.9,1-4.31c3.6-11.73,7.98-23.25,8.46-35.76c0.1-2.53,1.54-5.01,2.36-7.51
		c0.59,0.07,1.19,0.14,1.78,0.21c0.14,1.68,0.56,3.4,0.36,5.04c-1.31,10.63-3.19,21.12-7.54,31.04c-1.06,2.43-1.46,5.14-2.45,7.61
		c-0.61,1.53-1.76,2.85-2.67,4.27C164.69,642.65,164.26,642.45,163.83,642.26z"/>
	<path class="st0" d="M226.49,655.24c7.66,9.16,12.79,19.15,14.97,30.87C232.68,680.16,222.32,659.16,226.49,655.24z"/>
	<path class="st0" d="M389.35,600.81c-5.22-14.34-7.8-29.05-6.1-44.34c0.41-0.06,0.82-0.12,1.23-0.17
		c1.96,14.78,3.91,29.57,5.87,44.35C390.02,600.7,389.68,600.76,389.35,600.81z"/>
	<path class="st0" d="M268.98,706.36c0.19-1.28-0.02-2.81,0.62-3.78c5.44-8.22,11.03-16.33,17.26-23.99
		c-1.4,12.06-9.74,19.68-16.75,28.15C269.74,706.6,269.36,706.48,268.98,706.36z"/>
	<path class="st0" d="M149.8,584.49c1.48-11.98-2.2-24.21,1.94-37.15C155.95,560.8,153.81,572.72,149.8,584.49z"/>
	<path class="st0" d="M305.22,657.6c-0.41,2.11-0.43,4.41-1.31,6.3c-2.93,6.27-6.16,12.4-9.32,18.57c-1.28,2.5-2.95,3.38-5.05,1.19
		c4.7-8.99,9.32-17.82,13.94-26.66C304.06,657.2,304.64,657.4,305.22,657.6z"/>
	<path class="st0" d="M399.34,535.85c5.06,13.51,10.11,27.02,15.07,40.27c-6.05-5.23-13.73-24-16.17-39.95
		C398.6,536.06,398.97,535.95,399.34,535.85z"/>
	<path class="st0" d="M191.08,624.79c1.94,12.97-1.05,25-7,36.47C186.41,649.1,188.74,636.94,191.08,624.79z"/>
	<path class="st0" d="M356.45,601.58c2.84,12.65,5.69,25.3,8.53,37.95c-5.93-11.92-9.21-24.47-9.67-37.7
		C355.69,601.75,356.07,601.66,356.45,601.58z"/>
	<path class="st0" d="M335.93,629.26c5.53,8.58,7.33,16.01,5.03,21.48C339.3,643.45,334.82,637.57,335.93,629.26z"/>
	<path class="st0" d="M247.34,448.87c-2.93-6.93-5.5-13.02-8.24-19.5C244.56,431.74,248.34,440.52,247.34,448.87z"/>
	<path class="st0" d="M290.22,436.95c-2.36,5.15-4.72,10.31-7.19,15.69c-1.47-2.37,2.92-13.25,6.13-16.18
		C289.52,436.62,289.87,436.79,290.22,436.95z"/>
	<path class="st0" d="M251.27,457.85c-0.47-5.13-0.89-9.77-1.35-14.71C253.36,446.9,253.95,452.85,251.27,457.85z"/>
	<path class="st0" d="M290.97,427.3c-1.95,4.12-3.44,7.27-4.92,10.41C285.07,433.4,286.37,430.1,290.97,427.3z"/>
	<path class="st0" d="M324.33,642.69c1.69-0.13,3.06-0.24,5.23-0.41c-1.41,2.41-2.49,4.26-3.57,6.11c-0.32-0.09-0.65-0.17-0.97-0.26
		C324.8,646.42,324.59,644.71,324.33,642.69z"/>
	<path class="st0" d="M146.1,363.41c9.03-3.1,18.05-6.21,27.24-9.37c0.84,2.95,0.81,4.7-2.23,5.27c-7.41,1.39-14.78,2.94-22.17,4.42
		c-0.87,0.17-1.75,0.29-2.62,0.43C146.24,363.91,146.17,363.66,146.1,363.41z"/>
	<path class="st0" d="M158.96,370.83c3.42-1.53,6.84-3.07,10.26-4.6c0.2,0.42,0.39,0.85,0.59,1.27c-3.38,1.61-6.77,3.23-10.15,4.84
		C159.42,371.83,159.19,371.33,158.96,370.83z"/>
	<path class="st0" d="M382.41,358.42c-6.78-2.08-13.58-4.13-20.33-6.29c-0.48-0.15-0.71-1.09-1.06-1.66
		c0.51-0.26,1.15-0.86,1.52-0.73c6.79,2.4,13.54,4.89,20.31,7.36C382.7,357.55,382.56,357.98,382.41,358.42z"/>
	<path class="st0" d="M372.51,365.57c-4.39-1.62-8.78-3.24-13.17-4.86c0.17-0.48,0.34-0.95,0.51-1.43
		c4.38,1.66,8.75,3.31,13.13,4.97C372.82,364.7,372.67,365.14,372.51,365.57z"/>
	<path class="st0" d="M684.4,697.57c-1.54,0.51-2.54,0.85-3.46,1.15c-3.59-2.63-1.19-12.63-10.23-8.08
		c-2.29-3.93-2.38-6.92-0.09-10.6C677.3,684.11,680.9,690.46,684.4,697.57z"/>
	<path class="st0" d="M654.93,737.87c-5.59-5.48-8.16-16.83-3.56-20.45c1.68,7.02,3.25,13.58,4.82,20.13
		C655.77,737.66,655.35,737.76,654.93,737.87z"/>
	<path class="st0" d="M686.04,700.99c-0.34,2.4-0.57,4.05-0.81,5.7c-0.36,0.06-0.73,0.12-1.09,0.18c-0.9-1.46-1.79-2.92-2.86-4.65
		C682.83,701.83,683.93,701.54,686.04,700.99z"/>
</g>
</svg>
