<svg width="42" height="42" viewBox="0 0 42 42" fill="none" xmlns="http://www.w3.org/2000/svg">
<g clip-path="url(#clip0)">
<path d="M16.5639 15.0841C16.9506 15.0567 17.3182 14.968 17.6588 14.8295C17.2096 14.075 17.1151 13.1389 17.4459 12.2892C17.832 11.2973 18.7043 10.6158 19.7328 10.4686C19.2572 8.9076 17.7539 7.82413 16.0572 7.94455C14.0856 8.0845 12.6009 9.79616 12.7408 11.7677C12.8807 13.7392 14.5924 15.224 16.5639 15.0841Z" fill="#C7770F"/>
<path d="M20.9607 16.774C20.6737 17.0042 20.453 17.3225 20.3456 17.7036L17.9703 26.1316L19.1339 19.2055C19.2767 18.3555 18.9577 17.4786 18.2624 16.9182C17.8825 16.612 17.4125 16.439 16.9267 16.3931L12.699 15.9932C11.4368 15.8738 10.2851 16.7479 10.0755 17.9983L9.38361 22.1486L10.8902 22.0575L13.2377 19.914L11.0196 23.2532L5.24316 23.6024C4.34927 23.6565 3.66849 24.4249 3.72255 25.3188C3.77652 26.2114 4.54376 26.8935 5.43881 26.8394L12.0212 26.4414C12.5288 26.4108 12.9926 26.1437 13.2739 25.7201L15.9389 21.7084L14.2746 26.3848C14.0194 27.1022 13.3653 27.5632 12.6505 27.6074C10.6142 27.733 6.90282 28.0168 5.76816 28.1043C4.8764 28.1731 4.10695 28.8219 3.98595 29.7678L2.70306 39.8075C2.55442 40.971 3.46095 42 4.63556 42C5.60024 42 6.43762 41.2829 6.56313 40.3008L7.42093 33.5877H11.87V37.9987C9.49058 38.4205 7.56678 39.8882 6.82399 41.0743C6.57182 41.4772 6.86697 42 7.34218 42H19.0591C19.5343 42 19.8295 41.4772 19.5773 41.0744C18.8344 39.8882 16.9106 38.4205 14.5312 37.9987V33.5877H18.2854C19.1047 33.5877 19.8241 33.043 20.0464 32.2544L23.8677 18.6962C23.9409 18.4366 23.9537 18.1744 23.9154 17.9241L20.9607 16.774Z" fill="#C7770F"/>
<path d="M39.1982 39.1551L35.4971 28.2414L35.2945 23.8984V11.1056C35.2945 9.71836 34.1699 8.59387 32.7828 8.59387H28.3036C26.9165 8.59387 25.7919 9.71844 25.7919 11.1056V12.4213L26.142 12.5575L29.7912 11.1928L26.0657 13.8135L20.6212 11.6942C19.7519 11.3558 18.7728 11.7861 18.4345 12.6555C18.0971 13.5221 18.5242 14.503 19.3958 14.8422L25.6843 17.2901C26.3026 17.5309 26.8759 17.4368 27.3211 17.1237L31.8952 13.843C28.0841 18.1098 28.246 17.985 28.0324 18.1352C27.3682 18.6023 26.5606 18.7611 25.7919 18.6072V23.4378L25.1822 29.721C25.1755 29.7903 25.1721 29.86 25.1721 29.9297L25.1758 39.848C25.1763 41.0368 26.14 42.0001 27.3286 42.0001H27.3294C28.5184 41.9996 29.4819 41.0354 29.4815 39.8464L29.4778 30.0328L30.064 23.9926H30.9895C30.9898 24.0053 30.9897 24.0181 30.9903 24.0309L31.2102 28.7456C31.2197 28.9469 31.2573 29.1459 31.322 29.3367L35.1207 40.538C35.5026 41.6641 36.7248 42.2672 37.8508 41.8854C38.9768 41.5035 39.5801 40.2811 39.1982 39.1551Z" fill="#C7770F"/>
<path d="M30.3588 7.4363C32.4123 7.4363 34.0769 5.77163 34.0769 3.71815C34.0769 1.66467 32.4123 0 30.3588 0C28.3053 0 26.6406 1.66467 26.6406 3.71815C26.6406 5.77163 28.3053 7.4363 30.3588 7.4363Z" fill="#C7770F"/>
</g>
<defs>
<clipPath id="clip0">
<rect width="42" height="42" fill="white"/>
</clipPath>
</defs>
</svg>
