<svg width="42" height="35" viewBox="0 0 42 35" fill="none" xmlns="http://www.w3.org/2000/svg">
<path d="M33.5878 4.95335L35.1243 5.45834L35.5066 5.07604C35.785 4.8063 35.9566 4.44511 35.9899 4.0589C36.0303 3.64925 35.8877 3.24268 35.6004 2.948L33.0467 0.394337C32.43 -0.166021 31.4767 -0.124209 30.9114 0.488104L28.2063 3.19322L29.7501 3.69098L33.5878 4.95335Z" fill="#C7770F"/>
<path d="M30.5724 7.96873L32.1162 8.46641L33.9845 6.59805L32.448 6.09314L28.6031 4.83792L27.0665 4.33301L25.1982 6.20137L26.7347 6.70628L30.5724 7.96873Z" fill="#C7770F"/>
<path d="M27.5571 10.984L29.0936 11.489L30.9692 9.61339L29.4327 9.10848L25.595 7.84603L24.0512 7.34827L22.1757 9.22386L23.7194 9.72162L27.5571 10.984Z" fill="#C7770F"/>
<path d="M41.999 26.3565V26.3276C42.0141 25.1749 41.4947 24.0802 40.5923 23.3628C39.7804 22.7163 38.7151 22.4819 37.7068 22.728C33.6816 23.7091 28.0332 24.2501 21.8006 24.2501C18.9078 24.2501 16.145 24.1347 13.613 23.911L19.9177 17.6063C21.0268 16.4729 22.496 15.7613 24.0728 15.5936L24.8014 15.5359C24.9738 15.5259 25.1361 15.4512 25.2559 15.3267L27.9539 12.6287L26.4173 12.1237L22.5724 10.8685L21.0359 10.3635L8.18828 23.2113C7.37314 23.0598 6.60846 22.9011 5.89431 22.728C4.88607 22.4853 3.82213 22.7193 3.00881 23.3628C2.10647 24.0802 1.58701 25.175 1.60214 26.3276C1.59042 27.2604 1.9186 28.1656 2.52551 28.8741L0.765385 30.6342C-0.176858 31.4817 -0.260567 32.93 0.577851 33.8804C0.962479 34.2638 1.48477 34.4769 2.02783 34.4719C2.70748 34.4569 3.35454 34.1775 3.83127 33.6928L6.84662 30.6775C11.7711 31.6423 16.7831 32.0896 21.8006 32.012C29.339 32.012 35.853 31.2257 39.669 29.8551C41.104 29.2948 42.0351 27.8966 41.999 26.3565ZM6.36215 25.048C6.39914 25.0284 6.43663 25.0104 6.47437 24.9932C6.48701 24.9875 6.49931 24.9811 6.51211 24.9756C6.56174 24.9541 6.61195 24.9346 6.66257 24.9171C6.67737 24.9119 6.69258 24.9078 6.70754 24.903C6.74412 24.8912 6.78086 24.8801 6.81777 24.8703C6.83847 24.8648 6.85933 24.8602 6.8802 24.8554C6.91229 24.8479 6.94446 24.8411 6.97671 24.8352C6.99866 24.8311 7.02068 24.8274 7.0428 24.8239C7.07521 24.819 7.10772 24.8151 7.14022 24.8116C7.16158 24.8094 7.18278 24.8068 7.20423 24.8052C7.24097 24.8023 7.27779 24.8011 7.31454 24.8002C7.33158 24.7998 7.34854 24.7986 7.36566 24.7985C7.41878 24.7984 7.47173 24.8003 7.5246 24.8042C7.52851 24.8044 7.53241 24.8047 7.53624 24.8051C8.05137 24.8454 8.54914 25.0698 8.92603 25.4624C9.59853 26.163 9.72048 27.2265 9.22413 28.0612C8.72769 28.896 7.73508 29.2966 6.79832 29.0402C5.92116 28.8002 5.29522 28.0394 5.21733 27.1461C5.21708 27.1434 5.21691 27.1408 5.21675 27.1381C5.21193 27.0801 5.20918 27.0215 5.20902 26.9625C5.2076 26.6023 5.29696 26.2475 5.4687 25.9309C5.67594 25.5473 5.98999 25.2441 6.36215 25.048ZM36.228 29.1265C35.0328 29.1265 34.0639 28.1576 34.0639 26.9624C34.0639 25.7672 35.0328 24.7983 36.228 24.7983C37.4232 24.7983 38.3921 25.7672 38.3921 26.9624C38.3886 28.1562 37.4218 29.123 36.228 29.1265Z" fill="#C7770F"/>
<path d="M36.228 26.241C35.8295 26.241 35.5066 26.5639 35.5066 26.9623C35.5066 27.3608 35.8295 27.6837 36.228 27.6837C36.6264 27.6837 36.9493 27.3608 36.9493 26.9623C36.9482 26.5644 36.6259 26.2421 36.228 26.241Z" fill="#C7770F"/>
<path d="M7.37311 27.6837C7.52249 27.6837 7.66131 27.6383 7.77644 27.5605C7.83396 27.5216 7.88567 27.4747 7.92973 27.4212C7.94444 27.4034 7.95832 27.3849 7.97129 27.3657C7.99723 27.3273 8.01959 27.2863 8.03779 27.2431C8.07428 27.1569 8.09448 27.0619 8.09448 26.9623C8.09448 26.8628 8.07428 26.7678 8.03779 26.6815C8.0195 26.6384 7.99723 26.5974 7.97129 26.559C7.95832 26.5398 7.94444 26.5213 7.92973 26.5035C7.88559 26.45 7.83396 26.4031 7.77644 26.3642C7.66131 26.2864 7.52249 26.241 7.37311 26.241C6.97468 26.241 6.65173 26.5639 6.65173 26.9623C6.65173 27.3608 6.97468 27.6837 7.37311 27.6837Z" fill="#C7770F"/>
</svg>
