<svg width="42" height="42" viewBox="0 0 42 42" fill="none" xmlns="http://www.w3.org/2000/svg">
<g clip-path="url(#clip0)">
<path d="M38.0804 12.8207L26.6054 14.5237L23.3769 16.0621L20.7898 16.2008L14.9028 17.8063C14.5865 16.6775 13.8216 15.7761 12.7989 15.1911C11.5054 14.4522 9.81099 14.2226 8.10794 14.6841C5.04851 15.5161 3.13745 18.2744 3.8373 20.8484C4.14715 21.9881 4.92067 22.8938 5.94987 23.4854C7.24124 24.2242 8.93996 24.456 10.6387 23.9945C11.3884 23.7909 12.0666 23.4724 12.6516 23.0672C12.6559 23.0628 12.6602 23.0585 12.6689 23.0585C12.7144 23.0217 12.7643 22.9892 12.8141 22.948C16.3589 20.3219 18.8051 19.6156 20.1875 19.4661C20.0358 20.8484 19.3295 23.2947 16.7034 26.8395C16.6644 26.8871 16.6297 26.9391 16.5929 26.9825C16.5929 26.9911 16.5885 26.9933 16.5885 26.9998C16.1834 27.587 15.8649 28.2652 15.659 29.0127C15.1997 30.7136 15.4293 32.4101 16.1682 33.7058C16.7554 34.7329 17.6654 35.5064 18.8073 35.8162C18.8463 35.8292 18.8853 35.8336 18.9243 35.8422C18.9958 37.2463 19.4681 39.5539 21.507 41.6361C21.5092 41.6383 21.5114 41.6404 21.5135 41.6448C21.988 42.1149 22.7507 42.1193 23.2274 41.6534C23.7084 41.1833 23.7171 40.4119 23.2469 39.933C21.715 38.373 21.3922 36.6656 21.3489 35.6992C22.9934 35.1142 24.4105 33.5888 24.9695 31.5478C25.431 29.8447 25.1991 28.1503 24.4603 26.8546C23.8774 25.8341 22.9739 25.0671 21.8494 24.7551L23.4506 18.8637C24.703 18.4477 28.6724 17.4012 28.6724 17.4012C28.6724 17.4012 36.0198 14.2616 37.4824 13.865C38.8821 13.0179 38.0804 12.8207 38.0804 12.8207ZM9.9605 21.492C8.9963 21.7563 7.97577 21.661 7.23691 21.2363C6.90973 21.0499 6.48939 20.7163 6.33772 20.1681C6.02137 19.0002 7.14591 17.6352 8.79046 17.1867C9.76766 16.9223 10.7622 17.0111 11.514 17.4423C11.8391 17.6265 12.2616 17.9667 12.4111 18.5127C12.7296 19.6806 11.605 21.0478 9.9605 21.492ZM22.2134 28.1417C22.6402 28.8935 22.7334 29.8881 22.4669 30.8653C22.0184 32.512 20.6555 33.6322 19.4855 33.3158C18.9373 33.1685 18.6036 32.746 18.4173 32.421C17.9948 31.6778 17.8994 30.6594 18.1616 29.6952C18.6101 28.0485 19.9751 26.9261 21.143 27.2425C21.6869 27.3941 22.027 27.8188 22.2134 28.1417Z" fill="#C7770F"/>
<path d="M25.2251 12.1271L26.7288 0.309771C26.7288 0.309771 26.4146 -0.780096 25.8946 1.1223C25.6173 2.14933 22.209 10.3374 22.209 10.3374C22.209 10.3374 21.1885 13.8454 20.7898 15.0436L23.3769 14.9071L25.2251 12.1271Z" fill="#C7770F"/>
</g>
<defs>
<clipPath id="clip0">
<rect width="42" height="42" fill="white"/>
</clipPath>
</defs>
</svg>
